<?xml version="1.0" encoding="UTF-8" standalone="no" ?>
<!DOCTYPE svg PUBLIC "-//W3C//DTD SVG 1.1//EN" "http://www.w3.org/Graphics/SVG/1.1/DTD/svg11.dtd">
<svg xmlns="http://www.w3.org/2000/svg" xmlns:xlink="http://www.w3.org/1999/xlink" version="1.1" width="684" height="245" viewBox="126 133.96800000000002 684 245" xml:space="preserve">
<desc>Created with Fabric.js 4.2.0</desc>
<defs>
</defs>
<g transform="matrix(1 0 0 1 202 189)"  >
<path style="stroke: rgb(251,80,18); stroke-width: 2; stroke-dasharray: none; stroke-linecap: round; stroke-dashoffset: 0; stroke-linejoin: round; stroke-miterlimit: 10; fill: none; fill-rule: nonzero; opacity: 1;"  transform=" translate(-202, -189)" d="M 201.998 189 L 202.002 189" stroke-linecap="round" />
</g>
<g transform="matrix(1 0 0 1 225.49 263.63)"  >
<path style="stroke: rgb(251,80,18); stroke-width: 16; stroke-dasharray: none; stroke-linecap: round; stroke-dashoffset: 0; stroke-linejoin: round; stroke-miterlimit: 10; fill: none; fill-rule: nonzero; opacity: 1;"  transform=" translate(-225.49, -263.63)" d="M 247.016 212.984 Q 247 213 247.5 212 Q 248 211 246.5 212 Q 245 213 241 216.5 Q 237 220 233 223.5 Q 229 227 225 230.5 Q 221 234 217 237.5 Q 213 241 210 244 Q 207 247 204.5 251 Q 202 255 201.5 256.5 Q 201 258 201.5 259 Q 202 260 204 260.5 Q 206 261 208.5 261 Q 211 261 215 259.5 Q 219 258 221.5 256.5 Q 224 255 226.5 254 Q 229 253 231 252 Q 233 251 236.5 250 Q 240 249 242 249 Q 244 249 246 248.5 Q 248 248 249 248 Q 250 248 250 249.5 Q 250 251 250 253.5 Q 250 256 249 259.5 Q 248 263 246.5 266.5 Q 245 270 242.5 274.5 Q 240 279 236.5 283 Q 233 287 227.5 293 Q 222 299 218.5 302 Q 215 305 212.5 307.5 Q 210 310 207.5 312.5 Q 205 315 204 315.5 Q 203 316 202 316 L 200.984 316" stroke-linecap="round" />
</g>
<g transform="matrix(1 0 0 1 289.51 256.1)"  >
<path style="stroke: rgb(251,80,18); stroke-width: 16; stroke-dasharray: none; stroke-linecap: round; stroke-dashoffset: 0; stroke-linejoin: round; stroke-miterlimit: 10; fill: none; fill-rule: nonzero; opacity: 1;"  transform=" translate(-289.51, -256.1)" d="M 300.016 240.984 Q 300 241 301 239.5 Q 302 238 300 238.5 Q 298 239 296 240.5 Q 294 242 291 244.5 Q 288 247 285 249.5 Q 282 252 279 256.5 Q 276 261 275 263.5 Q 274 266 274 268 Q 274 270 275.5 271 Q 277 272 281.5 273 Q 286 274 288.5 274 Q 291 274 293.5 274 Q 296 274 297.5 274 Q 299 274 301 273.5 Q 303 273 304 272.5 L 305.016 271.984" stroke-linecap="round" />
</g>
<g transform="matrix(1 0 0 1 344.01 248.86)"  >
<path style="stroke: rgb(251,80,18); stroke-width: 16; stroke-dasharray: none; stroke-linecap: round; stroke-dashoffset: 0; stroke-linejoin: round; stroke-miterlimit: 10; fill: none; fill-rule: nonzero; opacity: 1;"  transform=" translate(-344.01, -248.87)" d="M 333.016 234.984 Q 333 235 333 236 Q 333 237 332.5 239 Q 332 241 331.5 244 Q 331 247 331 249 Q 331 251 331 253.5 Q 331 256 331.5 258.5 Q 332 261 332 262 Q 332 263 332 264.5 Q 332 266 332 267 Q 332 268 332 269 Q 332 270 332 271 Q 332 272 332 271 Q 332 270 331.5 268.5 Q 331 267 331 264.5 Q 331 262 331.5 257.5 Q 332 253 333 249.5 Q 334 246 335 243.5 Q 336 241 336.5 239 Q 337 237 339 235 Q 341 233 342 232 Q 343 231 344.5 230 Q 346 229 347.5 228.5 Q 349 228 350.5 227.5 Q 352 227 354.5 226.5 L 357.016 225.984" stroke-linecap="round" />
</g>
<g transform="matrix(1 0 0 1 378.44 248.18)"  >
<path style="stroke: rgb(251,80,18); stroke-width: 16; stroke-dasharray: none; stroke-linecap: round; stroke-dashoffset: 0; stroke-linejoin: round; stroke-miterlimit: 10; fill: none; fill-rule: nonzero; opacity: 1;"  transform=" translate(-378.44, -248.18)" d="M 377.984 232.984 Q 378 233 378.5 232 Q 379 231 379.5 233 Q 380 235 379.5 238.5 Q 379 242 378 247 Q 377 252 377 255 Q 377 258 377 260 Q 377 262 377 263.5 L 377 265.016" stroke-linecap="round" />
</g>
<g transform="matrix(1 0 0 1 385.51 200)"  >
<path style="stroke: rgb(251,80,18); stroke-width: 16; stroke-dasharray: none; stroke-linecap: round; stroke-dashoffset: 0; stroke-linejoin: round; stroke-miterlimit: 10; fill: none; fill-rule: nonzero; opacity: 1;"  transform=" translate(-385.5, -200)" d="M 386.984 199 Q 387 199 385.5 200 L 384.016 201" stroke-linecap="round" />
</g>
<g transform="matrix(1 0 0 1 421.43 227.68)"  >
<path style="stroke: rgb(251,80,18); stroke-width: 16; stroke-dasharray: none; stroke-linecap: round; stroke-dashoffset: 0; stroke-linejoin: round; stroke-miterlimit: 10; fill: none; fill-rule: nonzero; opacity: 1;"  transform=" translate(-421.43, -227.68)" d="M 430.016 189.984 Q 430 190 430.5 189 Q 431 188 430.5 190 Q 430 192 428.5 195 Q 427 198 426 202.5 Q 425 207 422 216.5 Q 419 226 417.5 231.5 Q 416 237 415.5 240.5 Q 415 244 414 247.5 Q 413 251 413 254.5 Q 413 258 413 259.5 Q 413 261 413 262 Q 413 263 413 264 Q 413 265 412.5 266 L 411.984 267.016" stroke-linecap="round" />
</g>
<g transform="matrix(1 0 0 1 438.93 242.51)"  >
<path style="stroke: rgb(251,80,18); stroke-width: 16; stroke-dasharray: none; stroke-linecap: round; stroke-dashoffset: 0; stroke-linejoin: round; stroke-miterlimit: 10; fill: none; fill-rule: nonzero; opacity: 1;"  transform=" translate(-438.93, -242.51)" d="M 424.984 223 Q 425 223 425 221.5 Q 425 220 426 220 Q 427 220 428.5 220 Q 430 220 432.5 220 Q 435 220 438 220 Q 441 220 444.5 221 Q 448 222 450 223.5 Q 452 225 453 226.5 Q 454 228 454.5 230.5 Q 455 233 454.5 237.5 Q 454 242 451.5 245 Q 449 248 446 251.5 Q 443 255 439 257.5 Q 435 260 432 261.5 Q 429 263 426 264 L 422.984 265.016" stroke-linecap="round" />
</g>
<g transform="matrix(1 0 0 1 480.4 230.5)"  >
<path style="stroke: rgb(251,80,18); stroke-width: 16; stroke-dasharray: none; stroke-linecap: round; stroke-dashoffset: 0; stroke-linejoin: round; stroke-miterlimit: 10; fill: none; fill-rule: nonzero; opacity: 1;"  transform=" translate(-480.4, -230.5)" d="M 483.016 196.984 Q 483 197 483.5 198.5 Q 484 200 482.5 206.5 Q 481 213 480 218 Q 479 223 478.5 227.5 Q 478 232 477.5 236.5 Q 477 241 477 245 Q 477 249 477 254.5 Q 477 260 477 262 L 477 264.016" stroke-linecap="round" />
</g>
<g transform="matrix(1 0 0 1 499.99 239.01)"  >
<path style="stroke: rgb(251,80,18); stroke-width: 16; stroke-dasharray: none; stroke-linecap: round; stroke-dashoffset: 0; stroke-linejoin: round; stroke-miterlimit: 10; fill: none; fill-rule: nonzero; opacity: 1;"  transform=" translate(-499.99, -239.01)" d="M 484.984 228.016 Q 485 228 486 226 Q 487 224 488 223.5 Q 489 223 491.5 222 Q 494 221 497 220 Q 500 219 504 218.5 Q 508 218 510.5 218 Q 513 218 514 218.5 Q 515 219 515 221 Q 515 223 515 226.5 Q 515 230 513.5 234 Q 512 238 508 243.5 Q 504 249 500.5 252.5 Q 497 256 493.5 258 L 489.984 260.016" stroke-linecap="round" />
</g>
<g transform="matrix(1 0 0 1 548.01 236.5)"  >
<path style="stroke: rgb(251,80,18); stroke-width: 16; stroke-dasharray: none; stroke-linecap: round; stroke-dashoffset: 0; stroke-linejoin: round; stroke-miterlimit: 10; fill: none; fill-rule: nonzero; opacity: 1;"  transform=" translate(-548.01, -236.5)" d="M 552.016 186.984 Q 552 187 551.5 189 Q 551 191 550 197.5 Q 549 204 547.5 212.5 Q 546 221 545.5 227.5 Q 545 234 545 238 Q 545 242 544.5 248 Q 544 254 544 259 Q 544 264 544 268 Q 544 272 544 275.5 Q 544 279 544 282.5 L 544 286.016" stroke-linecap="round" />
</g>
<g transform="matrix(1 0 0 1 602.5 237.44)"  >
<path style="stroke: rgb(251,80,18); stroke-width: 16; stroke-dasharray: none; stroke-linecap: round; stroke-dashoffset: 0; stroke-linejoin: round; stroke-miterlimit: 10; fill: none; fill-rule: nonzero; opacity: 1;"  transform=" translate(-602.5, -237.44)" d="M 603.984 239.016 Q 604 239 605.5 238.5 Q 607 238 610.5 235.5 Q 614 233 617 230.5 Q 620 228 622.5 225 Q 625 222 626 219.5 Q 627 217 627.5 214.5 Q 628 212 626.5 211 Q 625 210 622 210 Q 619 210 615.5 210.5 Q 612 211 607.5 213.5 Q 603 216 595.5 222.5 Q 588 229 584 233.5 Q 580 238 578.5 243 Q 577 248 577.5 252 Q 578 256 587 260 Q 596 264 604.5 264.5 Q 613 265 617 264.5 Q 621 264 624 263 L 627.016 261.984" stroke-linecap="round" />
</g>
<g transform="matrix(1 0 0 1 663.69 237.51)"  >
<path style="stroke: rgb(251,80,18); stroke-width: 16; stroke-dasharray: none; stroke-linecap: round; stroke-dashoffset: 0; stroke-linejoin: round; stroke-miterlimit: 10; fill: none; fill-rule: nonzero; opacity: 1;"  transform=" translate(-663.69, -237.51)" d="M 671.016 217 Q 671 217 673.5 215.5 Q 676 214 673.5 214 Q 671 214 668 214.5 Q 665 215 661.5 216.5 Q 658 218 656 219.5 Q 654 221 653 222.5 Q 652 224 652 225 Q 652 226 653 227 Q 654 228 655.5 229 Q 657 230 659 230.5 Q 661 231 664 233 Q 667 235 668.5 236.5 Q 670 238 670.5 240.5 Q 671 243 671 245 Q 671 247 670.5 250 Q 670 253 668.5 254.5 Q 667 256 665 257.5 Q 663 259 659 260 L 654.984 261.016" stroke-linecap="round" />
</g>
<g transform="matrix(1 0 0 1 710.5 222)"  >
<path style="stroke: rgb(251,80,18); stroke-width: 16; stroke-dasharray: none; stroke-linecap: round; stroke-dashoffset: 0; stroke-linejoin: round; stroke-miterlimit: 10; fill: none; fill-rule: nonzero; opacity: 1;"  transform=" translate(-710.5, -222)" d="M 713 175.984 Q 713 176 713.5 177 Q 714 178 714 180.5 Q 714 183 714 187.5 Q 714 192 713 198.5 Q 712 205 711 210 Q 710 215 709 221.5 Q 708 228 707.5 231.5 Q 707 235 707 238 Q 707 241 707 244 Q 707 247 707 249.5 Q 707 252 707.5 255.5 Q 708 259 708 261 Q 708 263 708.5 264.5 Q 709 266 709 267 L 709 268.016" stroke-linecap="round" />
</g>
<g transform="matrix(1 0 0 1 725.27 206.08)"  >
<path style="stroke: rgb(251,80,18); stroke-width: 16; stroke-dasharray: none; stroke-linecap: round; stroke-dashoffset: 0; stroke-linejoin: round; stroke-miterlimit: 10; fill: none; fill-rule: nonzero; opacity: 1;"  transform=" translate(-725.28, -206.07)" d="M 692.984 222.016 Q 693 222 694 221.5 Q 695 221 697 220 Q 699 219 701.5 217.5 Q 704 216 707.5 214 Q 711 212 715.5 210 Q 720 208 724 205.5 Q 728 203 734 200.5 Q 740 198 743.5 196.5 Q 747 195 749 194 Q 751 193 753 192 Q 755 191 756.5 190.5 Q 758 190 756 190.5 L 753.984 191.016" stroke-linecap="round" />
</g>
<g transform="matrix(1 0 0 1 236.5 232.5)"  >
<path style="stroke: rgb(34,34,0); stroke-width: 2; stroke-dasharray: none; stroke-linecap: round; stroke-dashoffset: 0; stroke-linejoin: round; stroke-miterlimit: 10; fill: none; fill-rule: nonzero; opacity: 1;"  transform=" translate(-236.5, -232.5)" d="M 225.998 240 Q 226 240 227 239 Q 228 238 229 238 Q 230 238 231.5 236.5 Q 233 235 234.5 234 Q 236 233 238 231.5 Q 240 230 242.5 228 Q 245 226 246 225.5 L 247.002 224.998" stroke-linecap="round" />
</g>
<g transform="matrix(1 0 0 1 247 227.5)"  >
<path style="stroke: rgb(34,34,0); stroke-width: 2; stroke-dasharray: none; stroke-linecap: round; stroke-dashoffset: 0; stroke-linejoin: round; stroke-miterlimit: 10; fill: none; fill-rule: nonzero; opacity: 1;"  transform=" translate(-247, -227.5)" d="M 239.998 233.002 Q 240 233 242 231 Q 244 229 246.5 227.5 Q 249 226 250 225 Q 251 224 252.5 223 L 254.002 221.998" stroke-linecap="round" />
</g>
<g transform="matrix(1 0 0 1 245 227)"  >
<path style="stroke: rgb(34,34,0); stroke-width: 2; stroke-dasharray: none; stroke-linecap: round; stroke-dashoffset: 0; stroke-linejoin: round; stroke-miterlimit: 10; fill: none; fill-rule: nonzero; opacity: 1;"  transform=" translate(-245, -227)" d="M 244.998 227 L 245.002 227" stroke-linecap="round" />
</g>
<g transform="matrix(1 0 0 1 235.5 233.5)"  >
<path style="stroke: rgb(34,34,0); stroke-width: 2; stroke-dasharray: none; stroke-linecap: round; stroke-dashoffset: 0; stroke-linejoin: round; stroke-miterlimit: 10; fill: none; fill-rule: nonzero; opacity: 1;"  transform=" translate(-235.5, -233.5)" d="M 245.002 226.998 Q 245 227 240 230 Q 235 233 233.5 234 Q 232 235 231 236 Q 230 237 229 237.5 Q 228 238 227 239 L 225.998 240.002" stroke-linecap="round" />
</g>
<g transform="matrix(1 0 0 1 236.65 232.42)"  >
<path style="stroke: rgb(34,34,0); stroke-width: 2; stroke-dasharray: none; stroke-linecap: round; stroke-dashoffset: 0; stroke-linejoin: round; stroke-miterlimit: 10; fill: none; fill-rule: nonzero; opacity: 1;"  transform=" translate(-236.65, -232.41)" d="M 233.002 236.998 Q 233 237 231 237.5 Q 229 238 228 239 Q 227 240 226 240.5 Q 225 241 226.5 240 Q 228 239 229 238.5 Q 230 238 231.5 236.5 Q 233 235 235 234 Q 237 233 239.5 231 Q 242 229 243.5 228 Q 245 227 246 226.5 Q 247 226 247.5 225 L 248.002 223.998" stroke-linecap="round" />
</g>
<g transform="matrix(1 0 0 1 251.5 223.5)"  >
<path style="stroke: rgb(34,34,0); stroke-width: 2; stroke-dasharray: none; stroke-linecap: round; stroke-dashoffset: 0; stroke-linejoin: round; stroke-miterlimit: 10; fill: none; fill-rule: nonzero; opacity: 1;"  transform=" translate(-251.5, -223.5)" d="M 247.998 227.002 Q 248 227 248.5 226 Q 249 225 250 224 Q 251 223 252 222 Q 253 221 254 220.5 L 255.002 219.998" stroke-linecap="round" />
</g>
<g transform="matrix(1 0 0 1 233 301)"  >
<path style="stroke: rgb(34,34,0); stroke-width: 2; stroke-dasharray: none; stroke-linecap: round; stroke-dashoffset: 0; stroke-linejoin: round; stroke-miterlimit: 10; fill: none; fill-rule: nonzero; opacity: 1;"  transform=" translate(-233, -301)" d="M 221.998 312.002 Q 222 312 222.5 311 Q 223 310 224.5 308.5 Q 226 307 227.5 306 Q 229 305 230.5 303.5 Q 232 302 234 300.5 Q 236 299 238.5 296.5 Q 241 294 242.5 292 L 244.002 289.998" stroke-linecap="round" />
</g>
<g transform="matrix(1 0 0 1 246 287.5)"  >
<path style="stroke: rgb(34,34,0); stroke-width: 2; stroke-dasharray: none; stroke-linecap: round; stroke-dashoffset: 0; stroke-linejoin: round; stroke-miterlimit: 10; fill: none; fill-rule: nonzero; opacity: 1;"  transform=" translate(-246, -287.5)" d="M 234.998 299.002 Q 235 299 237.5 296 Q 240 293 241 292 Q 242 291 244.5 289 Q 247 287 249 285.5 Q 251 284 252.5 282 Q 254 280 255.5 278 L 257.002 275.998" stroke-linecap="round" />
</g>
<g transform="matrix(1 0 0 1 250 277)"  >
<path style="stroke: rgb(34,34,0); stroke-width: 2; stroke-dasharray: none; stroke-linecap: round; stroke-dashoffset: 0; stroke-linejoin: round; stroke-miterlimit: 10; fill: none; fill-rule: nonzero; opacity: 1;"  transform=" translate(-250, -277)" d="M 257.002 268.998 Q 257 269 256.5 270 Q 256 271 255 273 Q 254 275 252.5 276 Q 251 277 249 279 Q 247 281 246 282.5 Q 245 284 244 284.5 L 242.998 285.002" stroke-linecap="round" />
</g>
<g transform="matrix(1 0 0 1 245 285.5)"  >
<path style="stroke: rgb(34,34,0); stroke-width: 2; stroke-dasharray: none; stroke-linecap: round; stroke-dashoffset: 0; stroke-linejoin: round; stroke-miterlimit: 10; fill: none; fill-rule: nonzero; opacity: 1;"  transform=" translate(-245, -285.5)" d="M 254.002 272.998 Q 254 273 251.5 276.5 Q 249 280 247.5 282 Q 246 284 244 287 Q 242 290 240.5 292 Q 239 294 237.5 296 L 235.998 298.002" stroke-linecap="round" />
</g>
<g transform="matrix(1 0 0 1 231 302.5)"  >
<path style="stroke: rgb(34,34,0); stroke-width: 2; stroke-dasharray: none; stroke-linecap: round; stroke-dashoffset: 0; stroke-linejoin: round; stroke-miterlimit: 10; fill: none; fill-rule: nonzero; opacity: 1;"  transform=" translate(-231, -302.5)" d="M 245.002 287.998 Q 245 288 241.5 291.5 Q 238 295 233.5 299.5 Q 229 304 226 307.5 Q 223 311 220 314 L 216.998 317.002" stroke-linecap="round" />
</g>
<g transform="matrix(1 0 0 1 287 282)"  >
<path style="stroke: rgb(34,34,0); stroke-width: 2; stroke-dasharray: none; stroke-linecap: round; stroke-dashoffset: 0; stroke-linejoin: round; stroke-miterlimit: 10; fill: none; fill-rule: nonzero; opacity: 1;"  transform=" translate(-287, -282)" d="M 279.998 281 Q 280 281 281 281.5 Q 282 282 284 282 Q 286 282 288.5 282 Q 291 282 292.5 282.5 L 294.002 283.002" stroke-linecap="round" />
</g>
<g transform="matrix(1 0 0 1 294 283.5)"  >
<path style="stroke: rgb(34,34,0); stroke-width: 2; stroke-dasharray: none; stroke-linecap: round; stroke-dashoffset: 0; stroke-linejoin: round; stroke-miterlimit: 10; fill: none; fill-rule: nonzero; opacity: 1;"  transform=" translate(-294, -283.5)" d="M 280.998 282.998 Q 281 283 282 283 Q 283 283 284 283.5 Q 285 284 286.5 284 Q 288 284 291 284 Q 294 284 296.5 284 Q 299 284 301 283.5 Q 303 283 305 283 L 307.002 283" stroke-linecap="round" />
</g>
<g transform="matrix(1 0 0 1 301.5 282.5)"  >
<path style="stroke: rgb(34,34,0); stroke-width: 2; stroke-dasharray: none; stroke-linecap: round; stroke-dashoffset: 0; stroke-linejoin: round; stroke-miterlimit: 10; fill: none; fill-rule: nonzero; opacity: 1;"  transform=" translate(-301.5, -282.5)" d="M 289.998 283 Q 290 283 293 283 Q 296 283 298 283 Q 300 283 302 283 Q 304 283 305.5 283 Q 307 283 309 283 Q 311 283 312 282.5 L 313.002 281.998" stroke-linecap="round" />
</g>
<g transform="matrix(1 0 0 1 294 255.5)"  >
<path style="stroke: rgb(34,34,0); stroke-width: 2; stroke-dasharray: none; stroke-linecap: round; stroke-dashoffset: 0; stroke-linejoin: round; stroke-miterlimit: 10; fill: none; fill-rule: nonzero; opacity: 1;"  transform=" translate(-294, -255.5)" d="M 285.998 263.002 Q 286 263 287 262 Q 288 261 289 260 Q 290 259 291.5 257.5 Q 293 256 294 254.5 Q 295 253 297 252 Q 299 251 300.5 249.5 L 302.002 247.998" stroke-linecap="round" />
</g>
<g transform="matrix(1 0 0 1 294.5 256.5)"  >
<path style="stroke: rgb(34,34,0); stroke-width: 2; stroke-dasharray: none; stroke-linecap: round; stroke-dashoffset: 0; stroke-linejoin: round; stroke-miterlimit: 10; fill: none; fill-rule: nonzero; opacity: 1;"  transform=" translate(-294.5, -256.5)" d="M 286.998 262.002 Q 287 262 290.5 259 Q 294 256 295 255.5 Q 296 255 297.5 253.5 Q 299 252 300.5 251.5 L 302.002 250.998" stroke-linecap="round" />
</g>
<g transform="matrix(1 0 0 1 330.6 279.5)"  >
<path style="stroke: rgb(34,34,0); stroke-width: 2; stroke-dasharray: none; stroke-linecap: round; stroke-dashoffset: 0; stroke-linejoin: round; stroke-miterlimit: 10; fill: none; fill-rule: nonzero; opacity: 1;"  transform=" translate(-330.6, -279.5)" d="M 329.002 281.002 Q 329 281 328 281 Q 327 281 326.5 280 Q 326 279 327.5 278.5 Q 329 278 330 278 Q 331 278 332 278 Q 333 278 334 278.5 L 335.002 279.002" stroke-linecap="round" />
</g>
<g transform="matrix(1 0 0 1 333.5 276)"  >
<path style="stroke: rgb(34,34,0); stroke-width: 2; stroke-dasharray: none; stroke-linecap: round; stroke-dashoffset: 0; stroke-linejoin: round; stroke-miterlimit: 10; fill: none; fill-rule: nonzero; opacity: 1;"  transform=" translate(-333.5, -276)" d="M 327.998 279 Q 328 279 329 279 Q 330 279 331 279 Q 332 279 333 279 Q 334 279 335 278.5 Q 336 278 337 277 Q 338 276 338.5 274.5 L 339.002 272.998" stroke-linecap="round" />
</g>
<g transform="matrix(1 0 0 1 348 244)"  >
<path style="stroke: rgb(34,34,0); stroke-width: 2; stroke-dasharray: none; stroke-linecap: round; stroke-dashoffset: 0; stroke-linejoin: round; stroke-miterlimit: 10; fill: none; fill-rule: nonzero; opacity: 1;"  transform=" translate(-348, -244)" d="M 347.998 244 L 348.002 244" stroke-linecap="round" />
</g>
<g transform="matrix(1 0 0 1 345.5 254.5)"  >
<path style="stroke: rgb(34,34,0); stroke-width: 2; stroke-dasharray: none; stroke-linecap: round; stroke-dashoffset: 0; stroke-linejoin: round; stroke-miterlimit: 10; fill: none; fill-rule: nonzero; opacity: 1;"  transform=" translate(-345.5, -254.5)" d="M 348 243.998 Q 348 244 346 248 Q 344 252 344 253.5 Q 344 255 343.5 257 Q 343 259 343 260.5 Q 343 262 343 263.5 L 343 265.002" stroke-linecap="round" />
</g>
<g transform="matrix(1 0 0 1 343.5 258.5)"  >
<path style="stroke: rgb(34,34,0); stroke-width: 2; stroke-dasharray: none; stroke-linecap: round; stroke-dashoffset: 0; stroke-linejoin: round; stroke-miterlimit: 10; fill: none; fill-rule: nonzero; opacity: 1;"  transform=" translate(-343.5, -258.5)" d="M 345.002 248.998 Q 345 249 345 252 Q 345 255 344.5 257 Q 344 259 343.5 260.5 Q 343 262 343 263.5 Q 343 265 342.5 266.5 L 341.998 268.002" stroke-linecap="round" />
</g>
<g transform="matrix(1 0 0 1 349.5 251.33)"  >
<path style="stroke: rgb(34,34,0); stroke-width: 2; stroke-dasharray: none; stroke-linecap: round; stroke-dashoffset: 0; stroke-linejoin: round; stroke-miterlimit: 10; fill: none; fill-rule: nonzero; opacity: 1;"  transform=" translate(-349.5, -251.33)" d="M 345.002 257.998 Q 345 258 344 262 Q 343 266 342.5 267 Q 342 268 342 266 Q 342 264 342.5 262.5 Q 343 261 343.5 259 Q 344 257 344.5 254.5 Q 345 252 345.5 250.5 Q 346 249 347 248 Q 348 247 348.5 245.5 Q 349 244 350 243 Q 351 242 352 241 Q 353 240 354.5 238.5 Q 356 237 356.5 236 L 357.002 234.998" stroke-linecap="round" />
</g>
<g transform="matrix(1 0 0 1 349.5 242)"  >
<path style="stroke: rgb(34,34,0); stroke-width: 2; stroke-dasharray: none; stroke-linecap: round; stroke-dashoffset: 0; stroke-linejoin: round; stroke-miterlimit: 10; fill: none; fill-rule: nonzero; opacity: 1;"  transform=" translate(-349.5, -242)" d="M 345.998 245 Q 346 245 349.5 242 L 353.002 239" stroke-linecap="round" />
</g>
<g transform="matrix(1 0 0 1 375 274)"  >
<path style="stroke: rgb(34,34,0); stroke-width: 2; stroke-dasharray: none; stroke-linecap: round; stroke-dashoffset: 0; stroke-linejoin: round; stroke-miterlimit: 10; fill: none; fill-rule: nonzero; opacity: 1;"  transform=" translate(-375, -274)" d="M 371.998 272.998 Q 372 273 373 273.5 Q 374 274 375 274.5 Q 376 275 377 275 L 378.002 275" stroke-linecap="round" />
</g>
<g transform="matrix(1 0 0 1 381 274)"  >
<path style="stroke: rgb(34,34,0); stroke-width: 2; stroke-dasharray: none; stroke-linecap: round; stroke-dashoffset: 0; stroke-linejoin: round; stroke-miterlimit: 10; fill: none; fill-rule: nonzero; opacity: 1;"  transform=" translate(-381, -274)" d="M 375.998 275.002 Q 376 275 379.5 274.5 Q 383 274 384.5 273.5 L 386.002 272.998" stroke-linecap="round" />
</g>
<g transform="matrix(1 0 0 1 387.5 248.5)"  >
<path style="stroke: rgb(34,34,0); stroke-width: 2; stroke-dasharray: none; stroke-linecap: round; stroke-dashoffset: 0; stroke-linejoin: round; stroke-miterlimit: 10; fill: none; fill-rule: nonzero; opacity: 1;"  transform=" translate(-387.5, -248.5)" d="M 389.002 236.998 Q 389 237 389 238.5 Q 389 240 388.5 243 Q 388 246 387.5 248 Q 387 250 387 252.5 Q 387 255 386.5 257.5 L 385.998 260.002" stroke-linecap="round" />
</g>
<g transform="matrix(1 0 0 1 391 238)"  >
<path style="stroke: rgb(34,34,0); stroke-width: 2; stroke-dasharray: none; stroke-linecap: round; stroke-dashoffset: 0; stroke-linejoin: round; stroke-miterlimit: 10; fill: none; fill-rule: nonzero; opacity: 1;"  transform=" translate(-391, -238)" d="M 390.998 238 L 391.002 238" stroke-linecap="round" />
</g>
<g transform="matrix(1 0 0 1 389.5 258.5)"  >
<path style="stroke: rgb(34,34,0); stroke-width: 2; stroke-dasharray: none; stroke-linecap: round; stroke-dashoffset: 0; stroke-linejoin: round; stroke-miterlimit: 10; fill: none; fill-rule: nonzero; opacity: 1;"  transform=" translate(-389.5, -258.5)" d="M 390 247.998 Q 390 248 389.5 249.5 Q 389 251 389 252.5 Q 389 254 389 256.5 Q 389 259 389 261.5 Q 389 264 389 266.5 L 389 269.002" stroke-linecap="round" />
</g>
<g transform="matrix(1 0 0 1 386.5 262.5)"  >
<path style="stroke: rgb(34,34,0); stroke-width: 2; stroke-dasharray: none; stroke-linecap: round; stroke-dashoffset: 0; stroke-linejoin: round; stroke-miterlimit: 10; fill: none; fill-rule: nonzero; opacity: 1;"  transform=" translate(-386.5, -262.5)" d="M 388 253.998 Q 388 254 388 256.5 Q 388 259 388 260.5 Q 388 262 387.5 264 Q 387 266 386.5 267 Q 386 268 385.5 269.5 L 384.998 271.002" stroke-linecap="round" />
</g>
<g transform="matrix(1 0 0 1 418 276.5)"  >
<path style="stroke: rgb(34,34,0); stroke-width: 2; stroke-dasharray: none; stroke-linecap: round; stroke-dashoffset: 0; stroke-linejoin: round; stroke-miterlimit: 10; fill: none; fill-rule: nonzero; opacity: 1;"  transform=" translate(-418, -276.5)" d="M 410.998 279 Q 411 279 411 278 Q 411 277 412 277 Q 413 277 415.5 276.5 Q 418 276 419.5 275.5 Q 421 275 423 274.5 L 425.002 273.998" stroke-linecap="round" />
</g>
<g transform="matrix(1 0 0 1 426 273.5)"  >
<path style="stroke: rgb(34,34,0); stroke-width: 2; stroke-dasharray: none; stroke-linecap: round; stroke-dashoffset: 0; stroke-linejoin: round; stroke-miterlimit: 10; fill: none; fill-rule: nonzero; opacity: 1;"  transform=" translate(-426, -273.5)" d="M 411.998 277.002 Q 412 277 413 277 Q 414 277 416.5 276.5 Q 419 276 421 275.5 Q 423 275 425.5 274.5 Q 428 274 432 272.5 Q 436 271 438 270.5 L 440.002 269.998" stroke-linecap="round" />
</g>
<g transform="matrix(1 0 0 1 435 270.5)"  >
<path style="stroke: rgb(34,34,0); stroke-width: 2; stroke-dasharray: none; stroke-linecap: round; stroke-dashoffset: 0; stroke-linejoin: round; stroke-miterlimit: 10; fill: none; fill-rule: nonzero; opacity: 1;"  transform=" translate(-435, -270.5)" d="M 425.998 275.002 Q 426 275 430.5 273 Q 435 271 437 270 Q 439 269 441.5 267.5 L 444.002 265.998" stroke-linecap="round" />
</g>
<g transform="matrix(1 0 0 1 450.5 261)"  >
<path style="stroke: rgb(34,34,0); stroke-width: 2; stroke-dasharray: none; stroke-linecap: round; stroke-dashoffset: 0; stroke-linejoin: round; stroke-miterlimit: 10; fill: none; fill-rule: nonzero; opacity: 1;"  transform=" translate(-450.5, -261)" d="M 443.998 265.002 Q 444 265 448 263 Q 452 261 453.5 260 Q 455 259 456 258 L 457.002 256.998" stroke-linecap="round" />
</g>
<g transform="matrix(1 0 0 1 486.5 270)"  >
<path style="stroke: rgb(34,34,0); stroke-width: 2; stroke-dasharray: none; stroke-linecap: round; stroke-dashoffset: 0; stroke-linejoin: round; stroke-miterlimit: 10; fill: none; fill-rule: nonzero; opacity: 1;"  transform=" translate(-486.5, -270)" d="M 477.998 273.002 Q 478 273 479 273 Q 480 273 481.5 272.5 Q 483 272 485 271 Q 487 270 489.5 269.5 Q 492 269 493.5 268 L 495.002 266.998" stroke-linecap="round" />
</g>
<g transform="matrix(1 0 0 1 494.5 266.5)"  >
<path style="stroke: rgb(34,34,0); stroke-width: 2; stroke-dasharray: none; stroke-linecap: round; stroke-dashoffset: 0; stroke-linejoin: round; stroke-miterlimit: 10; fill: none; fill-rule: nonzero; opacity: 1;"  transform=" translate(-494.5, -266.5)" d="M 484.998 270.002 Q 485 270 488 269.5 Q 491 269 493 268 Q 495 267 498 265.5 Q 501 264 502.5 263.5 L 504.002 262.998" stroke-linecap="round" />
</g>
<g transform="matrix(1 0 0 1 511.5 250.5)"  >
<path style="stroke: rgb(34,34,0); stroke-width: 2; stroke-dasharray: none; stroke-linecap: round; stroke-dashoffset: 0; stroke-linejoin: round; stroke-miterlimit: 10; fill: none; fill-rule: nonzero; opacity: 1;"  transform=" translate(-511.5, -250.5)" d="M 522.002 240.998 Q 522 241 521 242 Q 520 243 518.5 244.5 Q 517 246 515 247.5 Q 513 249 510 252 Q 507 255 505 256.5 Q 503 258 502 259 L 500.998 260.002" stroke-linecap="round" />
</g>
<g transform="matrix(1 0 0 1 505.5 258)"  >
<path style="stroke: rgb(34,34,0); stroke-width: 2; stroke-dasharray: none; stroke-linecap: round; stroke-dashoffset: 0; stroke-linejoin: round; stroke-miterlimit: 10; fill: none; fill-rule: nonzero; opacity: 1;"  transform=" translate(-505.5, -258)" d="M 514.002 249.998 Q 514 250 511.5 253 Q 509 256 507.5 257 Q 506 258 505 259.5 Q 504 261 502.5 262 Q 501 263 500 264 Q 499 265 498 265.5 L 496.998 266.002" stroke-linecap="round" />
</g>
<g transform="matrix(1 0 0 1 497.5 233.5)"  >
<path style="stroke: rgb(34,34,0); stroke-width: 2; stroke-dasharray: none; stroke-linecap: round; stroke-dashoffset: 0; stroke-linejoin: round; stroke-miterlimit: 10; fill: none; fill-rule: nonzero; opacity: 1;"  transform=" translate(-497.5, -233.5)" d="M 488.998 237.002 Q 489 237 490 237 Q 491 237 492 236 Q 493 235 494.5 234.5 Q 496 234 498 233 Q 500 232 503 231 L 506.002 229.998" stroke-linecap="round" />
</g>
<g transform="matrix(1 0 0 1 497 231)"  >
<path style="stroke: rgb(34,34,0); stroke-width: 2; stroke-dasharray: none; stroke-linecap: round; stroke-dashoffset: 0; stroke-linejoin: round; stroke-miterlimit: 10; fill: none; fill-rule: nonzero; opacity: 1;"  transform=" translate(-497, -231)" d="M 487.998 235.002 Q 488 235 492 233.5 Q 496 232 497 231.5 Q 498 231 500 230 Q 502 229 504 228 L 506.002 226.998" stroke-linecap="round" />
</g>
<g transform="matrix(1 0 0 1 437.5 233)"  >
<path style="stroke: rgb(34,34,0); stroke-width: 2; stroke-dasharray: none; stroke-linecap: round; stroke-dashoffset: 0; stroke-linejoin: round; stroke-miterlimit: 10; fill: none; fill-rule: nonzero; opacity: 1;"  transform=" translate(-437.5, -233)" d="M 430.998 234.002 Q 431 234 432 233.5 Q 433 233 435 232.5 Q 437 232 438.5 232 Q 440 232 441.5 232 Q 443 232 443.5 233 L 444.002 234.002" stroke-linecap="round" />
</g>
<g transform="matrix(1 0 0 1 437 233.5)"  >
<path style="stroke: rgb(34,34,0); stroke-width: 2; stroke-dasharray: none; stroke-linecap: round; stroke-dashoffset: 0; stroke-linejoin: round; stroke-miterlimit: 10; fill: none; fill-rule: nonzero; opacity: 1;"  transform=" translate(-437, -233.5)" d="M 427.998 232 Q 428 232 429.5 232 Q 431 232 433 232 Q 435 232 436.5 232 Q 438 232 439 232 Q 440 232 441 232 Q 442 232 443 232.5 Q 444 233 445 234 L 446.002 235.002" stroke-linecap="round" />
</g>
<g transform="matrix(1 0 0 1 437.5 232)"  >
<path style="stroke: rgb(34,34,0); stroke-width: 2; stroke-dasharray: none; stroke-linecap: round; stroke-dashoffset: 0; stroke-linejoin: round; stroke-miterlimit: 10; fill: none; fill-rule: nonzero; opacity: 1;"  transform=" translate(-437.5, -232)" d="M 428.998 234.002 Q 429 234 432 233 Q 435 232 437.5 231.5 Q 440 231 441 230.5 Q 442 230 443 230 Q 444 230 445 230 L 446.002 230" stroke-linecap="round" />
</g>
<g transform="matrix(1 0 0 1 540 293)"  >
<path style="stroke: rgb(34,34,0); stroke-width: 2; stroke-dasharray: none; stroke-linecap: round; stroke-dashoffset: 0; stroke-linejoin: round; stroke-miterlimit: 10; fill: none; fill-rule: nonzero; opacity: 1;"  transform=" translate(-540, -293)" d="M 536.998 290.998 Q 537 291 537 292 Q 537 293 538 293.5 Q 539 294 540 294 Q 541 294 542 294.5 L 543.002 295.002" stroke-linecap="round" />
</g>
<g transform="matrix(1 0 0 1 546 294)"  >
<path style="stroke: rgb(34,34,0); stroke-width: 2; stroke-dasharray: none; stroke-linecap: round; stroke-dashoffset: 0; stroke-linejoin: round; stroke-miterlimit: 10; fill: none; fill-rule: nonzero; opacity: 1;"  transform=" translate(-546, -294)" d="M 539.998 294 Q 540 294 541 294.5 Q 542 295 543 295 Q 544 295 545.5 295 Q 547 295 548 295 Q 549 295 550 295 Q 551 295 551.5 294 L 552.002 292.998" stroke-linecap="round" />
</g>
<g transform="matrix(1 0 0 1 591 268)"  >
<path style="stroke: rgb(34,34,0); stroke-width: 2; stroke-dasharray: none; stroke-linecap: round; stroke-dashoffset: 0; stroke-linejoin: round; stroke-miterlimit: 10; fill: none; fill-rule: nonzero; opacity: 1;"  transform=" translate(-591, -268)" d="M 573.998 262.998 Q 574 263 575 263.5 Q 576 264 577 264.5 Q 578 265 579.5 265.5 Q 581 266 584 267 Q 587 268 589.5 269 Q 592 270 594.5 270.5 Q 597 271 601 272 Q 605 273 606.5 273 L 608.002 273" stroke-linecap="round" />
</g>
<g transform="matrix(1 0 0 1 606.5 269.5)"  >
<path style="stroke: rgb(34,34,0); stroke-width: 2; stroke-dasharray: none; stroke-linecap: round; stroke-dashoffset: 0; stroke-linejoin: round; stroke-miterlimit: 10; fill: none; fill-rule: nonzero; opacity: 1;"  transform=" translate(-606.5, -269.5)" d="M 580.998 264.998 Q 581 265 582 265 Q 583 265 584 265.5 Q 585 266 586 266.5 Q 587 267 588 267.5 Q 589 268 590 268.5 Q 591 269 594.5 270 Q 598 271 599 271.5 Q 600 272 601 272 Q 602 272 603 272.5 Q 604 273 605.5 273 Q 607 273 608 273.5 Q 609 274 610 274 Q 611 274 612.5 274 Q 614 274 615 274 Q 616 274 617 274 Q 618 274 619 274 Q 620 274 621 274 Q 622 274 623 274 Q 624 274 625 274 Q 626 274 627 274 Q 628 274 629 274 Q 630 274 630 273 Q 630 272 631 271.5 L 632.002 270.998" stroke-linecap="round" />
</g>
<g transform="matrix(1 0 0 1 621.5 271)"  >
<path style="stroke: rgb(34,34,0); stroke-width: 2; stroke-dasharray: none; stroke-linecap: round; stroke-dashoffset: 0; stroke-linejoin: round; stroke-miterlimit: 10; fill: none; fill-rule: nonzero; opacity: 1;"  transform=" translate(-621.5, -271)" d="M 631.002 266.998 Q 631 267 629.5 267.5 Q 628 268 626.5 268.5 Q 625 269 623.5 269.5 Q 622 270 620.5 270.5 Q 619 271 617.5 272 Q 616 273 615 273.5 Q 614 274 613 274.5 L 611.998 275.002" stroke-linecap="round" />
</g>
<g transform="matrix(1 0 0 1 622.5 271)"  >
<path style="stroke: rgb(34,34,0); stroke-width: 2; stroke-dasharray: none; stroke-linecap: round; stroke-dashoffset: 0; stroke-linejoin: round; stroke-miterlimit: 10; fill: none; fill-rule: nonzero; opacity: 1;"  transform=" translate(-622.5, -271)" d="M 632.002 267.998 Q 632 268 629 269 Q 626 270 624 270.5 Q 622 271 619.5 272 Q 617 273 615 273.5 L 612.998 274.002" stroke-linecap="round" />
</g>
<g transform="matrix(1 0 0 1 610.5 245)"  >
<path style="stroke: rgb(34,34,0); stroke-width: 2; stroke-dasharray: none; stroke-linecap: round; stroke-dashoffset: 0; stroke-linejoin: round; stroke-miterlimit: 10; fill: none; fill-rule: nonzero; opacity: 1;"  transform=" translate(-610.5, -245)" d="M 604.998 247.002 Q 605 247 606 247 Q 607 247 609.5 246 Q 612 245 614 244 L 616.002 242.998" stroke-linecap="round" />
</g>
<g transform="matrix(1 0 0 1 627 229.5)"  >
<path style="stroke: rgb(34,34,0); stroke-width: 2; stroke-dasharray: none; stroke-linecap: round; stroke-dashoffset: 0; stroke-linejoin: round; stroke-miterlimit: 10; fill: none; fill-rule: nonzero; opacity: 1;"  transform=" translate(-627, -229.5)" d="M 635.002 222.998 Q 635 223 634 223 Q 633 223 631 224.5 Q 629 226 628 227 Q 627 228 626 229 Q 625 230 623 232 Q 621 234 620 235 L 618.998 236.002" stroke-linecap="round" />
</g>
<g transform="matrix(1 0 0 1 619.5 233.5)"  >
<path style="stroke: rgb(34,34,0); stroke-width: 2; stroke-dasharray: none; stroke-linecap: round; stroke-dashoffset: 0; stroke-linejoin: round; stroke-miterlimit: 10; fill: none; fill-rule: nonzero; opacity: 1;"  transform=" translate(-619.5, -233.5)" d="M 630.002 224.998 Q 630 225 626.5 228 Q 623 231 622 232 Q 621 233 618 235.5 Q 615 238 613.5 239 Q 612 240 610.5 241 L 608.998 242.002" stroke-linecap="round" />
</g>
<g transform="matrix(1 0 0 1 615 239.5)"  >
<path style="stroke: rgb(34,34,0); stroke-width: 2; stroke-dasharray: none; stroke-linecap: round; stroke-dashoffset: 0; stroke-linejoin: round; stroke-miterlimit: 10; fill: none; fill-rule: nonzero; opacity: 1;"  transform=" translate(-615, -239.5)" d="M 621.002 234.998 Q 621 235 617.5 237.5 Q 614 240 611.5 242 L 608.998 244.002" stroke-linecap="round" />
</g>
<g transform="matrix(1 0 0 1 609.5 225)"  >
<path style="stroke: rgb(34,34,0); stroke-width: 2; stroke-dasharray: none; stroke-linecap: round; stroke-dashoffset: 0; stroke-linejoin: round; stroke-miterlimit: 10; fill: none; fill-rule: nonzero; opacity: 1;"  transform=" translate(-609.5, -225)" d="M 614.002 221.998 Q 614 222 612.5 222.5 Q 611 223 609.5 224.5 Q 608 226 606.5 227 L 604.998 228.002" stroke-linecap="round" />
</g>
<g transform="matrix(1 0 0 1 607.88 224.07)"  >
<path style="stroke: rgb(34,34,0); stroke-width: 2; stroke-dasharray: none; stroke-linecap: round; stroke-dashoffset: 0; stroke-linejoin: round; stroke-miterlimit: 10; fill: none; fill-rule: nonzero; opacity: 1;"  transform=" translate(-607.87, -224.06)" d="M 602.998 228.002 Q 603 228 604 227.5 Q 605 227 606.5 226 Q 608 225 609 224.5 Q 610 224 611.5 223 Q 613 222 614.5 221 Q 616 220 617 219.5 Q 618 219 617 219.5 Q 616 220 615 220.5 Q 614 221 612.5 221.5 Q 611 222 609.5 223 Q 608 224 605.5 225 Q 603 226 601.5 227 Q 600 228 599 228.5 L 597.998 229.002" stroke-linecap="round" />
</g>
<g transform="matrix(1 0 0 1 653 271.07)"  >
<path style="stroke: rgb(34,34,0); stroke-width: 2; stroke-dasharray: none; stroke-linecap: round; stroke-dashoffset: 0; stroke-linejoin: round; stroke-miterlimit: 10; fill: none; fill-rule: nonzero; opacity: 1;"  transform=" translate(-653, -271.06)" d="M 648.998 270.998 Q 649 271 650 270.5 Q 651 270 652 270.5 Q 653 271 654 271 Q 655 271 656 271.5 L 657.002 272.002" stroke-linecap="round" />
</g>
<g transform="matrix(1 0 0 1 659 270.5)"  >
<path style="stroke: rgb(34,34,0); stroke-width: 2; stroke-dasharray: none; stroke-linecap: round; stroke-dashoffset: 0; stroke-linejoin: round; stroke-miterlimit: 10; fill: none; fill-rule: nonzero; opacity: 1;"  transform=" translate(-659, -270.5)" d="M 651.998 272.002 Q 652 272 653.5 272 Q 655 272 656.5 271.5 Q 658 271 659.5 271 Q 661 271 662.5 270.5 Q 664 270 665 269.5 L 666.002 268.998" stroke-linecap="round" />
</g>
<g transform="matrix(1 0 0 1 678 251.5)"  >
<path style="stroke: rgb(34,34,0); stroke-width: 2; stroke-dasharray: none; stroke-linecap: round; stroke-dashoffset: 0; stroke-linejoin: round; stroke-miterlimit: 10; fill: none; fill-rule: nonzero; opacity: 1;"  transform=" translate(-678, -251.5)" d="M 679 245.998 Q 679 246 679 247 Q 679 248 679 250 Q 679 252 679 253 Q 679 254 678 255.5 L 676.998 257.002" stroke-linecap="round" />
</g>
<g transform="matrix(1 0 0 1 672.5 260.5)"  >
<path style="stroke: rgb(34,34,0); stroke-width: 2; stroke-dasharray: none; stroke-linecap: round; stroke-dashoffset: 0; stroke-linejoin: round; stroke-miterlimit: 10; fill: none; fill-rule: nonzero; opacity: 1;"  transform=" translate(-672.5, -260.5)" d="M 680.002 250.998 Q 680 251 679 252 Q 678 253 677 254.5 Q 676 256 675 258 Q 674 260 672 262.5 Q 670 265 668.5 266.5 Q 667 268 666 269 L 664.998 270.002" stroke-linecap="round" />
</g>
<g transform="matrix(1 0 0 1 657.5 270)"  >
<path style="stroke: rgb(34,34,0); stroke-width: 2; stroke-dasharray: none; stroke-linecap: round; stroke-dashoffset: 0; stroke-linejoin: round; stroke-miterlimit: 10; fill: none; fill-rule: nonzero; opacity: 1;"  transform=" translate(-657.5, -270)" d="M 660.002 269 Q 660 269 658.5 270 Q 657 271 656 271 L 654.998 271" stroke-linecap="round" />
</g>
<g transform="matrix(1 0 0 1 660 269)"  >
<path style="stroke: rgb(34,34,0); stroke-width: 2; stroke-dasharray: none; stroke-linecap: round; stroke-dashoffset: 0; stroke-linejoin: round; stroke-miterlimit: 10; fill: none; fill-rule: nonzero; opacity: 1;"  transform=" translate(-660, -269)" d="M 659.998 269 L 660.002 269" stroke-linecap="round" />
</g>
<g transform="matrix(1 0 0 1 662.5 265.5)"  >
<path style="stroke: rgb(34,34,0); stroke-width: 2; stroke-dasharray: none; stroke-linecap: round; stroke-dashoffset: 0; stroke-linejoin: round; stroke-miterlimit: 10; fill: none; fill-rule: nonzero; opacity: 1;"  transform=" translate(-662.5, -265.5)" d="M 651.998 267 Q 652 267 653 267 Q 654 267 655.5 267 Q 657 267 659.5 267 Q 662 267 664 266.5 Q 666 266 668 265.5 Q 670 265 671.5 264.5 L 673.002 263.998" stroke-linecap="round" />
</g>
<g transform="matrix(1 0 0 1 668 264.5)"  >
<path style="stroke: rgb(34,34,0); stroke-width: 2; stroke-dasharray: none; stroke-linecap: round; stroke-dashoffset: 0; stroke-linejoin: round; stroke-miterlimit: 10; fill: none; fill-rule: nonzero; opacity: 1;"  transform=" translate(-668, -264.5)" d="M 659.998 269.002 Q 660 269 662.5 268.5 Q 665 268 667 267 Q 669 266 670.5 265.5 Q 672 265 673 263.5 Q 674 262 675 261 L 676.002 259.998" stroke-linecap="round" />
</g>
<g transform="matrix(1 0 0 1 677.5 259.5)"  >
<path style="stroke: rgb(34,34,0); stroke-width: 2; stroke-dasharray: none; stroke-linecap: round; stroke-dashoffset: 0; stroke-linejoin: round; stroke-miterlimit: 10; fill: none; fill-rule: nonzero; opacity: 1;"  transform=" translate(-677.5, -259.5)" d="M 673.998 263.002 Q 674 263 677 260.5 Q 680 258 680.5 257 L 681.002 255.998" stroke-linecap="round" />
</g>
<g transform="matrix(1 0 0 1 709.5 275.5)"  >
<path style="stroke: rgb(34,34,0); stroke-width: 2; stroke-dasharray: none; stroke-linecap: round; stroke-dashoffset: 0; stroke-linejoin: round; stroke-miterlimit: 10; fill: none; fill-rule: nonzero; opacity: 1;"  transform=" translate(-709.5, -275.5)" d="M 702.998 272.998 Q 703 273 703 274 Q 703 275 704 275.5 Q 705 276 707 276.5 Q 709 277 710 277 Q 711 277 712 277.5 Q 713 278 714.5 278 L 716.002 278" stroke-linecap="round" />
</g>
<g transform="matrix(1 0 0 1 710 275)"  >
<path style="stroke: rgb(34,34,0); stroke-width: 2; stroke-dasharray: none; stroke-linecap: round; stroke-dashoffset: 0; stroke-linejoin: round; stroke-miterlimit: 10; fill: none; fill-rule: nonzero; opacity: 1;"  transform=" translate(-710, -275)" d="M 704.998 275 Q 705 275 707.5 275 Q 710 275 711 275 Q 712 275 713.5 275 L 715.002 275" stroke-linecap="round" />
</g>
<g transform="matrix(1 0 0 1 714 274)"  >
<path style="stroke: rgb(34,34,0); stroke-width: 2; stroke-dasharray: none; stroke-linecap: round; stroke-dashoffset: 0; stroke-linejoin: round; stroke-miterlimit: 10; fill: none; fill-rule: nonzero; opacity: 1;"  transform=" translate(-714, -274)" d="M 713.998 274 L 714.002 274" stroke-linecap="round" />
</g>
<g transform="matrix(1 0 0 1 718 224)"  >
<path style="stroke: rgb(34,34,0); stroke-width: 2; stroke-dasharray: none; stroke-linecap: round; stroke-dashoffset: 0; stroke-linejoin: round; stroke-miterlimit: 10; fill: none; fill-rule: nonzero; opacity: 1;"  transform=" translate(-718, -224)" d="M 717.998 225 Q 718 225 718 224 L 718.002 223" stroke-linecap="round" />
</g>
<g transform="matrix(1 0 0 1 734.5 211)"  >
<path style="stroke: rgb(34,34,0); stroke-width: 2; stroke-dasharray: none; stroke-linecap: round; stroke-dashoffset: 0; stroke-linejoin: round; stroke-miterlimit: 10; fill: none; fill-rule: nonzero; opacity: 1;"  transform=" translate(-734.5, -211)" d="M 721.998 219.002 Q 722 219 723 218 Q 724 217 727 215 Q 730 213 733 211 Q 736 209 739 207 Q 742 205 744.5 204 L 747.002 202.998" stroke-linecap="round" />
</g>
<g transform="matrix(1 0 0 1 734 213)"  >
<path style="stroke: rgb(34,34,0); stroke-width: 2; stroke-dasharray: none; stroke-linecap: round; stroke-dashoffset: 0; stroke-linejoin: round; stroke-miterlimit: 10; fill: none; fill-rule: nonzero; opacity: 1;"  transform=" translate(-734, -213)" d="M 719.998 219.002 Q 720 219 723 217.5 Q 726 216 728.5 214.5 Q 731 213 735 211.5 Q 739 210 741.5 209 Q 744 208 746 207.5 L 748.002 206.998" stroke-linecap="round" />
</g>
<g transform="matrix(1 0 0 1 733 214)"  >
<path style="stroke: rgb(34,34,0); stroke-width: 2; stroke-dasharray: none; stroke-linecap: round; stroke-dashoffset: 0; stroke-linejoin: round; stroke-miterlimit: 10; fill: none; fill-rule: nonzero; opacity: 1;"  transform=" translate(-733, -214)" d="M 711.998 222.002 Q 712 222 716 220.5 Q 720 219 722.5 217.5 Q 725 216 728.5 215 Q 732 214 736 212.5 Q 740 211 744 209.5 Q 748 208 751 207 L 754.002 205.998" stroke-linecap="round" />
</g>
<g transform="matrix(1 0 0 1 742.5 210)"  >
<path style="stroke: rgb(34,34,0); stroke-width: 2; stroke-dasharray: none; stroke-linecap: round; stroke-dashoffset: 0; stroke-linejoin: round; stroke-miterlimit: 10; fill: none; fill-rule: nonzero; opacity: 1;"  transform=" translate(-742.5, -210)" d="M 730.998 216.002 Q 731 216 734.5 214.5 Q 738 213 740 212 Q 742 211 744.5 209.5 Q 747 208 749 207 Q 751 206 752.5 205 L 754.002 203.998" stroke-linecap="round" />
</g>
<g transform="matrix(1 0 0 1 754 205.5)"  >
<path style="stroke: rgb(34,34,0); stroke-width: 2; stroke-dasharray: none; stroke-linecap: round; stroke-dashoffset: 0; stroke-linejoin: round; stroke-miterlimit: 10; fill: none; fill-rule: nonzero; opacity: 1;"  transform=" translate(-754, -205.5)" d="M 744.998 209.002 Q 745 209 749.5 207 Q 754 205 755.5 204.5 Q 757 204 760 203 L 763.002 201.998" stroke-linecap="round" />
</g>
<g transform="matrix(1 0 0 1 749 207)"  >
<path style="stroke: rgb(34,34,0); stroke-width: 2; stroke-dasharray: none; stroke-linecap: round; stroke-dashoffset: 0; stroke-linejoin: round; stroke-miterlimit: 10; fill: none; fill-rule: nonzero; opacity: 1;"  transform=" translate(-749, -207)" d="M 761.002 201.998 Q 761 202 757.5 203 Q 754 204 749 206 Q 744 208 740.5 210 L 736.998 212.002" stroke-linecap="round" />
</g>
<g transform="matrix(1 0 0 1 443.73 190.52)"  >
<path style="stroke: rgb(32,129,195); stroke-opacity: 0.6; stroke-width: 32; stroke-dasharray: none; stroke-linecap: round; stroke-dashoffset: 0; stroke-linejoin: round; stroke-miterlimit: 10; fill: none; fill-rule: nonzero; opacity: 0.6;"  transform=" translate(-443.73, -190.52)" d="M 165.968 229.032 Q 166 229 166 228 Q 166 227 167.5 225.5 Q 169 224 171.5 221 Q 174 218 177 214.5 Q 180 211 183 207.5 Q 186 204 189 201 Q 192 198 194 196 Q 196 194 197 193.5 Q 198 193 195.5 194 Q 193 195 189.5 198 Q 186 201 179.5 205.5 Q 173 210 170 212.5 Q 167 215 165 216 Q 163 217 164.5 216.5 Q 166 216 174.5 210.5 Q 183 205 192.5 199 Q 202 193 207.5 189.5 Q 213 186 216 184 Q 219 182 221.5 180.5 Q 224 179 222 179.5 Q 220 180 217 182 Q 214 184 211 186 Q 208 188 205.5 190 Q 203 192 207.5 190.5 Q 212 189 220.5 185 Q 229 181 244.5 174 Q 260 167 266.5 164.5 Q 273 162 277.5 160.5 Q 282 159 284.5 158.5 Q 287 158 289 157.5 Q 291 157 290 157.5 Q 289 158 285 160 Q 281 162 275.5 164 Q 270 166 265 168 Q 260 170 257 171.5 Q 254 173 256 173 Q 258 173 266 171 Q 274 169 284.5 166.5 Q 295 164 305.5 162 Q 316 160 319.5 159.5 Q 323 159 326.5 158.5 Q 330 158 332.5 157.5 Q 335 157 331 158 Q 327 159 321.5 161 Q 316 163 311.5 164 Q 307 165 305 165.5 Q 303 166 315 164.5 Q 327 163 338 161 Q 349 159 355.5 158 Q 362 157 365 157 Q 368 157 372.5 156 Q 377 155 373.5 156 Q 370 157 362.5 159 Q 355 161 350.5 162 Q 346 163 343.5 164 Q 341 165 346 165 Q 351 165 362.5 163.5 Q 374 162 390 160 Q 406 158 412 158 Q 418 158 422 157.5 Q 426 157 430.5 157 Q 435 157 436 157 Q 437 157 436 157.5 Q 435 158 430.5 159.5 Q 426 161 420.5 162 Q 415 163 411 163.5 Q 407 164 406 164.5 Q 405 165 411 165 Q 417 165 428.5 165 Q 440 165 458 164 Q 476 163 485.5 162.5 Q 495 162 501 161.5 Q 507 161 510 161 Q 513 161 515.5 161 Q 518 161 512 161.5 Q 506 162 493.5 163 Q 481 164 478.5 164 Q 476 164 477 164 Q 478 164 486.5 163.5 Q 495 163 504.5 162.5 Q 514 162 522 162 Q 530 162 535.5 162 Q 541 162 544 162 Q 547 162 549.5 162 Q 552 162 550.5 162.5 Q 549 163 545.5 163 Q 542 163 538.5 163 Q 535 163 536 163 Q 537 163 541.5 163 Q 546 163 554 163 Q 562 163 573.5 163 Q 585 163 588 162.5 Q 591 162 593 162 Q 595 162 596 162 Q 597 162 595.5 162 Q 594 162 590 162 Q 586 162 585 162 Q 584 162 586.5 162.5 Q 589 163 596 163 Q 603 163 608.5 162.5 Q 614 162 619 162 Q 624 162 627 161.5 Q 630 161 628 160 Q 626 159 624.5 159 Q 623 159 624 159 Q 625 159 630.5 159 Q 636 159 641 159 Q 646 159 650 159 Q 654 159 656 159 Q 658 159 655 158.5 Q 652 158 650 158 Q 648 158 654 158 Q 660 158 665 158 Q 670 158 674 158.5 Q 678 159 680 159 Q 682 159 681 159 Q 680 159 679 159 Q 678 159 679 159 Q 680 159 684.5 159 Q 689 159 692 158.5 Q 695 158 696 157.5 Q 697 157 695 156 Q 693 155 689 154.5 Q 685 154 689.5 154 Q 694 154 701.5 154 Q 709 154 712.5 153.5 Q 716 153 715 152.5 Q 714 152 710.5 152 Q 707 152 702.5 152 Q 698 152 702 152.5 Q 706 153 710.5 153 Q 715 153 719.5 153 L 724.032 153" stroke-linecap="round" />
</g>
<g transform="matrix(1 0 0 1 162.52 290.12)"  >
<path style="stroke: rgb(32,129,195); stroke-opacity: 0.6; stroke-width: 32; stroke-dasharray: none; stroke-linecap: round; stroke-dashoffset: 0; stroke-linejoin: round; stroke-miterlimit: 10; fill: none; fill-rule: nonzero; opacity: 0.6;"  transform=" translate(-162.52, -290.12)" d="M 161.032 237.968 Q 161 238 160 237.5 Q 159 237 158.5 238.5 Q 158 240 157.5 241 Q 157 242 157 243.5 Q 157 245 156.5 246.5 Q 156 248 156 250 Q 156 252 155.5 256.5 Q 155 261 155 264.5 Q 155 268 155 272 Q 155 276 155 280 Q 155 284 155 290.5 Q 155 297 155 302 Q 155 307 156 311.5 Q 157 316 158 320 Q 159 324 160.5 326.5 Q 162 329 164 332 Q 166 335 167.5 336.5 Q 169 338 169.5 340.5 L 170.032 343.032" stroke-linecap="round" />
</g>
<g transform="matrix(1 0 0 1 168 330.5)"  >
<path style="stroke: rgb(32,129,195); stroke-opacity: 0.6; stroke-width: 32; stroke-dasharray: none; stroke-linecap: round; stroke-dashoffset: 0; stroke-linejoin: round; stroke-miterlimit: 10; fill: none; fill-rule: nonzero; opacity: 0.6;"  transform=" translate(-168, -330.5)" d="M 148.968 307.968 Q 149 308 149.5 311.5 Q 150 315 151 319.5 Q 152 324 155 328.5 Q 158 333 162 337 Q 166 341 171 344.5 Q 176 348 181.5 350.5 L 187.032 353.032" stroke-linecap="round" />
</g>
<g transform="matrix(1 0 0 1 199 351)"  >
<path style="stroke: rgb(32,129,195); stroke-opacity: 0.6; stroke-width: 32; stroke-dasharray: none; stroke-linecap: round; stroke-dashoffset: 0; stroke-linejoin: round; stroke-miterlimit: 10; fill: none; fill-rule: nonzero; opacity: 0.6;"  transform=" translate(-199, -351)" d="M 166.968 339.968 Q 167 340 171.5 342 Q 176 344 178.5 345.5 Q 181 347 184.5 348.5 Q 188 350 197 353.5 Q 206 357 212.5 358.5 Q 219 360 225 361 L 231.032 362.032" stroke-linecap="round" />
</g>
<g transform="matrix(1 0 0 1 242.5 351.9)"  >
<path style="stroke: rgb(32,129,195); stroke-opacity: 0.6; stroke-width: 32; stroke-dasharray: none; stroke-linecap: round; stroke-dashoffset: 0; stroke-linejoin: round; stroke-miterlimit: 10; fill: none; fill-rule: nonzero; opacity: 0.6;"  transform=" translate(-242.5, -351.9)" d="M 203.968 358.032 Q 204 358 208.5 358.5 Q 213 359 222 358 Q 231 357 242 354.5 Q 253 352 259.5 350.5 Q 266 349 269.5 348 Q 273 347 277 346 L 281.032 344.968" stroke-linecap="round" />
</g>
<g transform="matrix(1 0 0 1 302.5 343.5)"  >
<path style="stroke: rgb(32,129,195); stroke-opacity: 0.6; stroke-width: 32; stroke-dasharray: none; stroke-linecap: round; stroke-dashoffset: 0; stroke-linejoin: round; stroke-miterlimit: 10; fill: none; fill-rule: nonzero; opacity: 0.6;"  transform=" translate(-302.5, -343.5)" d="M 265.968 354.032 Q 266 354 271 352.5 Q 276 351 278.5 350.5 Q 281 350 289 347.5 Q 297 345 305 343 Q 313 341 319 339 Q 325 337 329 336 Q 333 335 336 334 L 339.032 332.968" stroke-linecap="round" />
</g>
<g transform="matrix(1 0 0 1 498.5 332.52)"  >
<path style="stroke: rgb(32,129,195); stroke-opacity: 0.6; stroke-width: 32; stroke-dasharray: none; stroke-linecap: round; stroke-dashoffset: 0; stroke-linejoin: round; stroke-miterlimit: 10; fill: none; fill-rule: nonzero; opacity: 0.6;"  transform=" translate(-498.5, -332.52)" d="M 315.968 343.032 Q 316 343 321 342 Q 326 341 329 340 Q 332 339 341.5 336 Q 351 333 358 331 Q 365 329 368.5 328 Q 372 327 376.5 326 Q 381 325 382 325 Q 383 325 382 325.5 Q 381 326 377 328 Q 373 330 368.5 331.5 Q 364 333 360.5 335 Q 357 337 358 337 Q 359 337 365.5 336.5 Q 372 336 391 333 Q 410 330 415.5 329 Q 421 328 433.5 326 Q 446 324 450 323.5 Q 454 323 456 322.5 Q 458 322 459.5 322 Q 461 322 459.5 323 Q 458 324 454 325.5 Q 450 327 446.5 328.5 Q 443 330 441.5 332 Q 440 334 452 334.5 Q 464 335 477 335 Q 490 335 501 334 Q 512 333 520 332 Q 528 331 534 330.5 Q 540 330 543 330 Q 546 330 548.5 330 Q 551 330 552 330 Q 553 330 552 330 Q 551 330 548 331 Q 545 332 542 332.5 Q 539 333 537 333 Q 535 333 536 333.5 Q 537 334 542.5 334 Q 548 334 558 334 Q 568 334 578.5 333.5 Q 589 333 602 332.5 Q 615 332 623.5 331.5 Q 632 331 637.5 331 Q 643 331 647 331 Q 651 331 655.5 331 Q 660 331 667 332 Q 674 333 677.5 333.5 L 681.032 334.032" stroke-linecap="round" />
</g>
<g transform="matrix(1 0 0 1 731.5 151)"  >
<path style="stroke: rgb(32,129,195); stroke-opacity: 0.6; stroke-width: 32; stroke-dasharray: none; stroke-linecap: round; stroke-dashoffset: 0; stroke-linejoin: round; stroke-miterlimit: 10; fill: none; fill-rule: nonzero; opacity: 0.6;"  transform=" translate(-731.5, -151)" d="M 734.032 151 Q 734 151 733 151 Q 732 151 730.5 151 L 728.968 151" stroke-linecap="round" />
</g>
<g transform="matrix(1 0 0 1 745.5 154.02)"  >
<path style="stroke: rgb(32,129,195); stroke-opacity: 0.6; stroke-width: 32; stroke-dasharray: none; stroke-linecap: round; stroke-dashoffset: 0; stroke-linejoin: round; stroke-miterlimit: 10; fill: none; fill-rule: nonzero; opacity: 0.6;"  transform=" translate(-745.5, -154.02)" d="M 730.968 152 Q 731 152 734 152 Q 737 152 740.5 152 Q 744 152 746 152.5 Q 748 153 750.5 153.5 Q 753 154 756.5 155 L 760.032 156.032" stroke-linecap="round" />
</g>
<g transform="matrix(1 0 0 1 763 171)"  >
<path style="stroke: rgb(32,129,195); stroke-opacity: 0.6; stroke-width: 32; stroke-dasharray: none; stroke-linecap: round; stroke-dashoffset: 0; stroke-linejoin: round; stroke-miterlimit: 10; fill: none; fill-rule: nonzero; opacity: 0.6;"  transform=" translate(-763, -171)" d="M 741.968 152.968 Q 742 153 746 154.5 Q 750 156 751 156.5 Q 752 157 753.5 158 Q 755 159 757.5 161 Q 760 163 763 165.5 Q 766 168 770 173 Q 774 178 777 181 Q 780 184 782 186.5 L 784.032 189.032" stroke-linecap="round" />
</g>
<g transform="matrix(1 0 0 1 777.98 211.5)"  >
<path style="stroke: rgb(32,129,195); stroke-opacity: 0.6; stroke-width: 32; stroke-dasharray: none; stroke-linecap: round; stroke-dashoffset: 0; stroke-linejoin: round; stroke-miterlimit: 10; fill: none; fill-rule: nonzero; opacity: 0.6;"  transform=" translate(-777.98, -211.5)" d="M 776.968 181.968 Q 777 182 779 184 Q 781 186 781.5 187.5 Q 782 189 782 192 Q 782 195 782 201 Q 782 207 780.5 214.5 Q 779 222 777.5 228.5 Q 776 235 775 238 L 773.968 241.032" stroke-linecap="round" />
</g>
<g transform="matrix(1 0 0 1 764.5 256)"  >
<path style="stroke: rgb(32,129,195); stroke-opacity: 0.6; stroke-width: 32; stroke-dasharray: none; stroke-linecap: round; stroke-dashoffset: 0; stroke-linejoin: round; stroke-miterlimit: 10; fill: none; fill-rule: nonzero; opacity: 0.6;"  transform=" translate(-764.5, -256)" d="M 772.032 237.968 Q 772 238 771 242 Q 770 246 767.5 252 Q 765 258 763.5 262.5 Q 762 267 759.5 270.5 L 756.968 274.032" stroke-linecap="round" />
</g>
<g transform="matrix(1 0 0 1 745.5 290.5)"  >
<path style="stroke: rgb(32,129,195); stroke-opacity: 0.6; stroke-width: 32; stroke-dasharray: none; stroke-linecap: round; stroke-dashoffset: 0; stroke-linejoin: round; stroke-miterlimit: 10; fill: none; fill-rule: nonzero; opacity: 0.6;"  transform=" translate(-745.5, -290.5)" d="M 765.032 262.968 Q 765 263 761.5 268 Q 758 273 754 279.5 Q 750 286 746 292 Q 742 298 737 304 Q 732 310 729 314 L 725.968 318.032" stroke-linecap="round" />
</g>
<g transform="matrix(1 0 0 1 719.5 316)"  >
<path style="stroke: rgb(32,129,195); stroke-opacity: 0.6; stroke-width: 32; stroke-dasharray: none; stroke-linecap: round; stroke-dashoffset: 0; stroke-linejoin: round; stroke-miterlimit: 10; fill: none; fill-rule: nonzero; opacity: 0.6;"  transform=" translate(-719.5, -316)" d="M 743.032 294.968 Q 743 295 740 298 Q 737 301 733 304 Q 729 307 724.5 311 Q 720 315 715.5 319.5 Q 711 324 705.5 328.5 Q 700 333 698 335 L 695.968 337.032" stroke-linecap="round" />
</g>
<g transform="matrix(1 0 0 1 682.5 337)"  >
<path style="stroke: rgb(32,129,195); stroke-opacity: 0.6; stroke-width: 32; stroke-dasharray: none; stroke-linecap: round; stroke-dashoffset: 0; stroke-linejoin: round; stroke-miterlimit: 10; fill: none; fill-rule: nonzero; opacity: 0.6;"  transform=" translate(-682.5, -337)" d="M 702.032 330.968 Q 702 331 698.5 332 Q 695 333 693.5 333.5 Q 692 334 689.5 334.5 Q 687 335 683.5 336.5 Q 680 338 675 339.5 Q 670 341 666.5 342 L 662.968 343.032" stroke-linecap="round" />
</g>
<g transform="matrix(1 0 0 1 688.5 333)"  >
<path style="stroke: rgb(32,129,195); stroke-opacity: 0.6; stroke-width: 32; stroke-dasharray: none; stroke-linecap: round; stroke-dashoffset: 0; stroke-linejoin: round; stroke-miterlimit: 10; fill: none; fill-rule: nonzero; opacity: 0.6;"  transform=" translate(-688.5, -333)" d="M 664.968 339.032 Q 665 339 669.5 337.5 Q 674 336 678 335 Q 682 334 687 332.5 Q 692 331 696.5 330.5 Q 701 330 706.5 328.5 L 712.032 326.968" stroke-linecap="round" />
</g>
<g transform="matrix(1 0 0 1 709 331)"  >
<path style="stroke: rgb(32,129,195); stroke-opacity: 0.6; stroke-width: 32; stroke-dasharray: none; stroke-linecap: round; stroke-dashoffset: 0; stroke-linejoin: round; stroke-miterlimit: 10; fill: none; fill-rule: nonzero; opacity: 0.6;"  transform=" translate(-709, -331)" d="M 688.968 338.032 Q 689 338 693 336 Q 697 334 699.5 333.5 Q 702 333 710.5 330 Q 719 327 724 325.5 L 729.032 323.968" stroke-linecap="round" />
</g>
<g transform="matrix(1 0 0 1 748.5 312)"  >
<path style="stroke: rgb(32,129,195); stroke-opacity: 0.6; stroke-width: 32; stroke-dasharray: none; stroke-linecap: round; stroke-dashoffset: 0; stroke-linejoin: round; stroke-miterlimit: 10; fill: none; fill-rule: nonzero; opacity: 0.6;"  transform=" translate(-748.5, -312)" d="M 723.968 328.032 Q 724 328 728 325.5 Q 732 323 739 319 Q 746 315 759.5 305.5 L 773.032 295.968" stroke-linecap="round" />
</g>
<g transform="matrix(1 0 0 1 410.5 330.52)"  >
<path style="stroke: rgb(32,129,195); stroke-opacity: 0.6; stroke-width: 32; stroke-dasharray: none; stroke-linecap: round; stroke-dashoffset: 0; stroke-linejoin: round; stroke-miterlimit: 10; fill: none; fill-rule: nonzero; opacity: 0.6;"  transform=" translate(-410.5, -330.52)" d="M 373.968 335.032 Q 374 335 381 334 Q 388 333 398 331 Q 408 329 417.5 327.5 Q 427 326 433.5 326 Q 440 326 443.5 327 L 447.032 328.032" stroke-linecap="round" />
</g>
<g transform="matrix(1 0 0 1 467.5 340)"  >
<path style="stroke: rgb(32,129,195); stroke-opacity: 0.6; stroke-width: 32; stroke-dasharray: none; stroke-linecap: round; stroke-dashoffset: 0; stroke-linejoin: round; stroke-miterlimit: 10; fill: none; fill-rule: nonzero; opacity: 0.6;"  transform=" translate(-467.5, -340)" d="M 443.968 340 Q 444 340 450.5 340 Q 457 340 462.5 340 Q 468 340 479.5 340 L 491.032 340" stroke-linecap="round" />
</g>
<g transform="matrix(1 0 0 1 537 336.5)"  >
<path style="stroke: rgb(32,129,195); stroke-opacity: 0.6; stroke-width: 32; stroke-dasharray: none; stroke-linecap: round; stroke-dashoffset: 0; stroke-linejoin: round; stroke-miterlimit: 10; fill: none; fill-rule: nonzero; opacity: 0.6;"  transform=" translate(-537, -336.5)" d="M 519.968 338.032 Q 520 338 526.5 337 Q 533 336 543.5 335.5 L 554.032 334.968" stroke-linecap="round" />
</g>
<g transform="matrix(1 0 0 1 583 338.5)"  >
<path style="stroke: rgb(32,129,195); stroke-opacity: 0.6; stroke-width: 32; stroke-dasharray: none; stroke-linecap: round; stroke-dashoffset: 0; stroke-linejoin: round; stroke-miterlimit: 10; fill: none; fill-rule: nonzero; opacity: 0.6;"  transform=" translate(-583, -338.5)" d="M 568.968 338 Q 569 338 573.5 338.5 Q 578 339 587.5 339 L 597.032 339" stroke-linecap="round" />
</g>
<g transform="matrix(1 0 0 1 660.5 339)"  >
<path style="stroke: rgb(32,129,195); stroke-opacity: 0.6; stroke-width: 32; stroke-dasharray: none; stroke-linecap: round; stroke-dashoffset: 0; stroke-linejoin: round; stroke-miterlimit: 10; fill: none; fill-rule: nonzero; opacity: 0.6;"  transform=" translate(-660.5, -339)" d="M 651.968 339 Q 652 339 655.5 339 Q 659 339 664 339 L 669.032 339" stroke-linecap="round" />
</g>
<g transform="matrix(1 0 0 1 153.5 260)"  >
<path style="stroke: rgb(32,129,195); stroke-opacity: 0.6; stroke-width: 32; stroke-dasharray: none; stroke-linecap: round; stroke-dashoffset: 0; stroke-linejoin: round; stroke-miterlimit: 10; fill: none; fill-rule: nonzero; opacity: 0.6;"  transform=" translate(-153.5, -260)" d="M 152.968 263 Q 153 263 153.5 260 L 154.032 257" stroke-linecap="round" />
</g>
<g transform="matrix(1 0 0 1 188.5 202.5)"  >
<path style="stroke: rgb(32,129,195); stroke-opacity: 0.6; stroke-width: 32; stroke-dasharray: none; stroke-linecap: round; stroke-dashoffset: 0; stroke-linejoin: round; stroke-miterlimit: 10; fill: none; fill-rule: nonzero; opacity: 0.6;"  transform=" translate(-188.5, -202.5)" d="M 183.968 208 Q 184 208 188.5 202.5 L 193.032 197" stroke-linecap="round" />
</g>
<g transform="matrix(1 0 0 1 269 180)"  >
<path style="stroke: rgb(32,129,195); stroke-opacity: 0.6; stroke-width: 32; stroke-dasharray: none; stroke-linecap: round; stroke-dashoffset: 0; stroke-linejoin: round; stroke-miterlimit: 10; fill: none; fill-rule: nonzero; opacity: 0.6;"  transform=" translate(-269, -180)" d="M 220.968 193.032 Q 221 193 227 191.5 Q 233 190 245.5 186 Q 258 182 273.5 177.5 Q 289 173 303 170 L 317.032 166.968" stroke-linecap="round" />
</g>
<g transform="matrix(1 0 0 1 346.5 160)"  >
<path style="stroke: rgb(32,129,195); stroke-opacity: 0.6; stroke-width: 32; stroke-dasharray: none; stroke-linecap: round; stroke-dashoffset: 0; stroke-linejoin: round; stroke-miterlimit: 10; fill: none; fill-rule: nonzero; opacity: 0.6;"  transform=" translate(-346.5, -160)" d="M 308.968 165.032 Q 309 165 314 164 Q 319 163 339.5 160 Q 360 157 372 156 L 384.032 154.968" stroke-linecap="round" />
</g>
<g transform="matrix(1 0 0 1 431.5 161)"  >
<path style="stroke: rgb(32,129,195); stroke-opacity: 0.6; stroke-width: 32; stroke-dasharray: none; stroke-linecap: round; stroke-dashoffset: 0; stroke-linejoin: round; stroke-miterlimit: 10; fill: none; fill-rule: nonzero; opacity: 0.6;"  transform=" translate(-431.5, -161)" d="M 391.968 162.032 Q 392 162 404.5 162 Q 417 162 444 161 L 471.032 159.968" stroke-linecap="round" />
</g>
<g transform="matrix(1 0 0 1 610 162)"  >
<path style="stroke: rgb(32,129,195); stroke-opacity: 0.6; stroke-width: 32; stroke-dasharray: none; stroke-linecap: round; stroke-dashoffset: 0; stroke-linejoin: round; stroke-miterlimit: 10; fill: none; fill-rule: nonzero; opacity: 0.6;"  transform=" translate(-610, -162)" d="M 574.968 162 Q 575 162 585 162 Q 595 162 606 162 Q 617 162 631 162 L 645.032 162" stroke-linecap="round" />
</g>
<g transform="matrix(1 0 0 1 609.5 154.52)"  >
<path style="stroke: rgb(32,129,195); stroke-opacity: 0.6; stroke-width: 32; stroke-dasharray: none; stroke-linecap: round; stroke-dashoffset: 0; stroke-linejoin: round; stroke-miterlimit: 10; fill: none; fill-rule: nonzero; opacity: 0.6;"  transform=" translate(-609.5, -154.52)" d="M 566.968 155.032 Q 567 155 571 155 Q 575 155 586.5 154.5 Q 598 154 616.5 154 Q 635 154 643.5 154 L 652.032 154" stroke-linecap="round" />
</g>
<g transform="matrix(1 0 0 1 633.5 153)"  >
<path style="stroke: rgb(32,129,195); stroke-opacity: 0.6; stroke-width: 32; stroke-dasharray: none; stroke-linecap: round; stroke-dashoffset: 0; stroke-linejoin: round; stroke-miterlimit: 10; fill: none; fill-rule: nonzero; opacity: 0.6;"  transform=" translate(-633.5, -153)" d="M 597.968 155.032 Q 598 155 603 154.5 Q 608 154 626.5 153 Q 645 152 657 151.5 L 669.032 150.968" stroke-linecap="round" />
</g>
<g transform="matrix(1 0 0 1 604 178)"  >
<path style="stroke: rgb(32,129,195); stroke-opacity: 0.6; stroke-width: 32; stroke-dasharray: none; stroke-linecap: round; stroke-dashoffset: 0; stroke-linejoin: round; stroke-miterlimit: 10; fill: none; fill-rule: nonzero; opacity: 0.6;"  transform=" translate(-604, -178)" d="M 583.968 178 Q 584 178 588 178 Q 592 178 595 178 Q 598 178 605 178 Q 612 178 618 178 L 624.032 178" stroke-linecap="round" />
</g>
<g transform="matrix(1 0 0 1 608.73 179.98)"  >
<path style="stroke: rgb(32,129,195); stroke-opacity: 0.6; stroke-width: 32; stroke-dasharray: none; stroke-linecap: round; stroke-dashoffset: 0; stroke-linejoin: round; stroke-miterlimit: 10; fill: none; fill-rule: nonzero; opacity: 0.6;"  transform=" translate(-608.73, -179.98)" d="M 582.968 181 Q 583 181 582 181 Q 581 181 584.5 181 Q 588 181 598.5 180.5 Q 609 180 622.5 179.5 L 636.032 178.968" stroke-linecap="round" />
</g>
<g transform="matrix(1 0 0 1 646 176)"  >
<path style="stroke: rgb(32,129,195); stroke-opacity: 0.6; stroke-width: 32; stroke-dasharray: none; stroke-linecap: round; stroke-dashoffset: 0; stroke-linejoin: round; stroke-miterlimit: 10; fill: none; fill-rule: nonzero; opacity: 0.6;"  transform=" translate(-646, -176)" d="M 603.968 180.032 Q 604 180 610 180 Q 616 180 622 179.5 Q 628 179 647.5 177.5 Q 667 176 674 175.5 Q 681 175 684 174.5 Q 687 174 687.5 173 L 688.032 171.968" stroke-linecap="round" />
</g>
<g transform="matrix(1 0 0 1 671 175.5)"  >
<path style="stroke: rgb(32,129,195); stroke-opacity: 0.6; stroke-width: 32; stroke-dasharray: none; stroke-linecap: round; stroke-dashoffset: 0; stroke-linejoin: round; stroke-miterlimit: 10; fill: none; fill-rule: nonzero; opacity: 0.6;"  transform=" translate(-671, -175.5)" d="M 659.968 177.032 Q 660 177 665.5 176.5 Q 671 176 676.5 175 L 682.032 173.968" stroke-linecap="round" />
</g>
<g transform="matrix(1 0 0 1 692 167)"  >
<path style="stroke: rgb(32,129,195); stroke-opacity: 0.6; stroke-width: 32; stroke-dasharray: none; stroke-linecap: round; stroke-dashoffset: 0; stroke-linejoin: round; stroke-miterlimit: 10; fill: none; fill-rule: nonzero; opacity: 0.6;"  transform=" translate(-692, -167)" d="M 691.968 167 L 692.032 167" stroke-linecap="round" />
</g>
<g transform="matrix(1 0 0 1 315.5 191.5)"  >
<path style="stroke: rgb(32,129,195); stroke-opacity: 0.6; stroke-width: 32; stroke-dasharray: none; stroke-linecap: round; stroke-dashoffset: 0; stroke-linejoin: round; stroke-miterlimit: 10; fill: none; fill-rule: nonzero; opacity: 0.6;"  transform=" translate(-315.5, -191.5)" d="M 289.968 201.032 Q 290 201 298 197.5 Q 306 194 316 190.5 Q 326 187 333.5 184.5 L 341.032 181.968" stroke-linecap="round" />
</g>
<g transform="matrix(1 0 0 1 325.5 189)"  >
<path style="stroke: rgb(32,129,195); stroke-opacity: 0.6; stroke-width: 32; stroke-dasharray: none; stroke-linecap: round; stroke-dashoffset: 0; stroke-linejoin: round; stroke-miterlimit: 10; fill: none; fill-rule: nonzero; opacity: 0.6;"  transform=" translate(-325.5, -189)" d="M 276.968 201.032 Q 277 201 289 197.5 Q 301 194 314.5 190.5 Q 328 187 341 184 Q 354 181 364 179 L 374.032 176.968" stroke-linecap="round" />
</g>
<g transform="matrix(1 0 0 1 244 336)"  >
<path style="stroke: rgb(32,129,195); stroke-opacity: 0.6; stroke-width: 32; stroke-dasharray: none; stroke-linecap: round; stroke-dashoffset: 0; stroke-linejoin: round; stroke-miterlimit: 10; fill: none; fill-rule: nonzero; opacity: 0.6;"  transform=" translate(-244, -336)" d="M 218.968 343.032 Q 219 343 220.5 342.5 Q 222 342 224.5 341.5 Q 227 341 232 339.5 Q 237 338 245 336 Q 253 334 261 331.5 L 269.032 328.968" stroke-linecap="round" />
</g>
<g transform="matrix(1 0 0 1 268.5 328)"  >
<path style="stroke: rgb(32,129,195); stroke-opacity: 0.6; stroke-width: 32; stroke-dasharray: none; stroke-linecap: round; stroke-dashoffset: 0; stroke-linejoin: round; stroke-miterlimit: 10; fill: none; fill-rule: nonzero; opacity: 0.6;"  transform=" translate(-268.5, -328)" d="M 220.968 339.032 Q 221 339 226 337 Q 231 335 241.5 332.5 Q 252 330 273 325 Q 294 320 305 318.5 L 316.032 316.968" stroke-linecap="round" />
</g>
<g transform="matrix(1 0 0 1 350 317.52)"  >
<path style="stroke: rgb(32,129,195); stroke-opacity: 0.6; stroke-width: 32; stroke-dasharray: none; stroke-linecap: round; stroke-dashoffset: 0; stroke-linejoin: round; stroke-miterlimit: 10; fill: none; fill-rule: nonzero; opacity: 0.6;"  transform=" translate(-350, -317.52)" d="M 303.968 322.032 Q 304 322 309.5 321 Q 315 320 319 319.5 Q 323 319 334.5 317 Q 346 315 359 314 Q 372 313 384 313 L 396.032 313" stroke-linecap="round" />
</g>
<g transform="matrix(1 0 0 1 408.5 314)"  >
<path style="stroke: rgb(32,129,195); stroke-opacity: 0.6; stroke-width: 32; stroke-dasharray: none; stroke-linecap: round; stroke-dashoffset: 0; stroke-linejoin: round; stroke-miterlimit: 10; fill: none; fill-rule: nonzero; opacity: 0.6;"  transform=" translate(-408.5, -314)" d="M 334.968 317 Q 335 317 336.5 317 Q 338 317 339.5 317 Q 341 317 345.5 316 Q 350 315 365 313.5 Q 380 312 392.5 311.5 Q 405 311 416 311 Q 427 311 438.5 311 Q 450 311 466 312.5 L 482.032 314.032" stroke-linecap="round" />
</g>
<g transform="matrix(1 0 0 1 471.5 310.52)"  >
<path style="stroke: rgb(32,129,195); stroke-opacity: 0.6; stroke-width: 32; stroke-dasharray: none; stroke-linecap: round; stroke-dashoffset: 0; stroke-linejoin: round; stroke-miterlimit: 10; fill: none; fill-rule: nonzero; opacity: 0.6;"  transform=" translate(-471.5, -310.52)" d="M 385.968 312.032 Q 386 312 391.5 312 Q 397 312 400 311.5 Q 403 311 413 311 Q 423 311 436.5 310 Q 450 309 463 309 Q 476 309 494.5 309 Q 513 309 524.5 309 Q 536 309 546.5 310 L 557.032 311.032" stroke-linecap="round" />
</g>
<g transform="matrix(1 0 0 1 556 315.52)"  >
<path style="stroke: rgb(32,129,195); stroke-opacity: 0.6; stroke-width: 32; stroke-dasharray: none; stroke-linecap: round; stroke-dashoffset: 0; stroke-linejoin: round; stroke-miterlimit: 10; fill: none; fill-rule: nonzero; opacity: 0.6;"  transform=" translate(-556, -315.52)" d="M 503.968 316 Q 504 316 507 315.5 Q 510 315 512 315 Q 514 315 520 314.5 Q 526 314 536 314 Q 546 314 556 314.5 Q 566 315 575 315.5 Q 584 316 596 316.5 L 608.032 317.032" stroke-linecap="round" />
</g>
<g transform="matrix(1 0 0 1 614.5 313.5)"  >
<path style="stroke: rgb(32,129,195); stroke-opacity: 0.6; stroke-width: 32; stroke-dasharray: none; stroke-linecap: round; stroke-dashoffset: 0; stroke-linejoin: round; stroke-miterlimit: 10; fill: none; fill-rule: nonzero; opacity: 0.6;"  transform=" translate(-614.5, -313.5)" d="M 585.968 316.032 Q 586 316 593.5 315.5 Q 601 315 612.5 314 Q 624 313 626.5 313 Q 629 313 636 312 L 643.032 310.968" stroke-linecap="round" />
</g>
<g transform="matrix(1 0 0 1 645 311.5)"  >
<path style="stroke: rgb(32,129,195); stroke-opacity: 0.6; stroke-width: 32; stroke-dasharray: none; stroke-linecap: round; stroke-dashoffset: 0; stroke-linejoin: round; stroke-miterlimit: 10; fill: none; fill-rule: nonzero; opacity: 0.6;"  transform=" translate(-645, -311.5)" d="M 617.968 312 Q 618 312 624.5 311.5 Q 631 311 637.5 311 Q 644 311 651.5 311 Q 659 311 665.5 311 L 672.032 311" stroke-linecap="round" />
</g>
<g transform="matrix(1 0 0 1 682.5 309.5)"  >
<path style="stroke: rgb(32,129,195); stroke-opacity: 0.6; stroke-width: 32; stroke-dasharray: none; stroke-linecap: round; stroke-dashoffset: 0; stroke-linejoin: round; stroke-miterlimit: 10; fill: none; fill-rule: nonzero; opacity: 0.6;"  transform=" translate(-682.5, -309.5)" d="M 657.968 314.032 Q 658 314 666 313 Q 674 312 679.5 311 Q 685 310 692 308.5 Q 699 307 703 306 L 707.032 304.968" stroke-linecap="round" />
</g>
<g transform="matrix(1 0 0 1 715.5 304.5)"  >
<path style="stroke: rgb(32,129,195); stroke-opacity: 0.6; stroke-width: 32; stroke-dasharray: none; stroke-linecap: round; stroke-dashoffset: 0; stroke-linejoin: round; stroke-miterlimit: 10; fill: none; fill-rule: nonzero; opacity: 0.6;"  transform=" translate(-715.5, -304.5)" d="M 704.968 307.032 Q 705 307 709.5 306 Q 714 305 720 303.5 L 726.032 301.968" stroke-linecap="round" />
</g>
<g transform="matrix(1 0 0 1 186 339.5)"  >
<path style="stroke: rgb(32,129,195); stroke-opacity: 0.6; stroke-width: 32; stroke-dasharray: none; stroke-linecap: round; stroke-dashoffset: 0; stroke-linejoin: round; stroke-miterlimit: 10; fill: none; fill-rule: nonzero; opacity: 0.6;"  transform=" translate(-186, -339.5)" d="M 175.968 334.968 Q 176 335 177 335.5 Q 178 336 179 336.5 Q 180 337 182 338.5 Q 184 340 186.5 341 Q 189 342 192.5 343 L 196.032 344.032" stroke-linecap="round" />
</g>
<g transform="matrix(1 0 0 1 157.52 252.77)"  >
<path style="stroke: rgb(32,129,195); stroke-opacity: 0.6; stroke-width: 32; stroke-dasharray: none; stroke-linecap: round; stroke-dashoffset: 0; stroke-linejoin: round; stroke-miterlimit: 10; fill: none; fill-rule: nonzero; opacity: 0.6;"  transform=" translate(-157.52, -252.77)" d="M 156 293.968 Q 156 294 155.5 292.5 Q 155 291 155 292 Q 155 293 154.5 294 Q 154 295 154 296 Q 154 297 154 298.5 Q 154 300 154 301 Q 154 302 154 303 Q 154 304 153.5 300.5 Q 153 297 152.5 293.5 Q 152 290 152 286 Q 152 282 152 278.5 Q 152 275 152 270.5 Q 152 266 152 264.5 Q 152 263 151.5 266 Q 151 269 150.5 272.5 Q 150 276 149 279.5 Q 148 283 147 286.5 Q 146 290 145 292 Q 144 294 143 293 Q 142 292 142 288.5 Q 142 285 143 278.5 Q 144 272 145.5 267.5 Q 147 263 148.5 259 Q 150 255 151 252.5 Q 152 250 153.5 248 Q 155 246 156 244.5 Q 157 243 157 242 Q 157 241 157.5 240 Q 158 239 159 237 Q 160 235 163 229 Q 166 223 167.5 218.5 Q 169 214 170 210.5 Q 171 207 172 204.5 L 173.032 201.968" stroke-linecap="round" />
</g>
<g transform="matrix(1 0 0 1 257 183.5)"  >
<path style="stroke: rgb(32,129,195); stroke-opacity: 0.6; stroke-width: 32; stroke-dasharray: none; stroke-linecap: round; stroke-dashoffset: 0; stroke-linejoin: round; stroke-miterlimit: 10; fill: none; fill-rule: nonzero; opacity: 0.6;"  transform=" translate(-257, -183.5)" d="M 171.968 217.032 Q 172 217 176 213.5 Q 180 210 183.5 207.5 Q 187 205 190.5 202.5 Q 194 200 197.5 198 Q 201 196 206 193.5 Q 211 191 213.5 189.5 Q 216 188 217.5 187 Q 219 186 217.5 187 Q 216 188 214 189 Q 212 190 209.5 191 Q 207 192 205.5 192.5 Q 204 193 205.5 192.5 Q 207 192 213 189 Q 219 186 228 182 Q 237 178 243 175 Q 249 172 254 169 Q 259 166 262.5 164.5 Q 266 163 267 162.5 Q 268 162 264.5 163.5 Q 261 165 256.5 167 Q 252 169 248.5 171 Q 245 173 243.5 173.5 Q 242 174 245.5 173.5 Q 249 173 253 171.5 Q 257 170 271.5 165.5 Q 286 161 292 159 Q 298 157 301.5 156.5 Q 305 156 310.5 155 Q 316 154 319 153.5 Q 322 153 324.5 153 Q 327 153 329.5 152.5 Q 332 152 337 151 L 342.032 149.968" stroke-linecap="round" />
</g>
<g transform="matrix(1 0 0 1 541.5 162.52)"  >
<path style="stroke: rgb(32,129,195); stroke-opacity: 0.6; stroke-width: 32; stroke-dasharray: none; stroke-linecap: round; stroke-dashoffset: 0; stroke-linejoin: round; stroke-miterlimit: 10; fill: none; fill-rule: nonzero; opacity: 0.6;"  transform=" translate(-541.5, -162.52)" d="M 461.968 166.032 Q 462 166 466.5 165 Q 471 164 476 163 Q 481 162 486.5 162 Q 492 162 501.5 161.5 Q 511 161 522 160.5 Q 533 160 546 160 Q 559 160 566 160.5 Q 573 161 577 161 Q 581 161 584.5 161 Q 588 161 590.5 161.5 Q 593 162 594.5 162 Q 596 162 595 162 Q 594 162 590 162 Q 586 162 575.5 161.5 Q 565 161 562.5 160.5 Q 560 160 552.5 160 Q 545 160 541.5 160 Q 538 160 536.5 160 Q 535 160 536.5 160 Q 538 160 541.5 160 Q 545 160 550 159.5 Q 555 159 561 159 Q 567 159 573 159 Q 579 159 587 159 Q 595 159 599.5 159 Q 604 159 608 159 Q 612 159 614.5 159.5 Q 617 160 619 160 L 621.032 160" stroke-linecap="round" />
</g>
<g transform="matrix(1 0 0 1 615 160)"  >
<path style="stroke: rgb(32,129,195); stroke-opacity: 0.6; stroke-width: 32; stroke-dasharray: none; stroke-linecap: round; stroke-dashoffset: 0; stroke-linejoin: round; stroke-miterlimit: 10; fill: none; fill-rule: nonzero; opacity: 0.6;"  transform=" translate(-615, -160)" d="M 601.968 157.968 Q 602 158 609 159 Q 616 160 622 161 L 628.032 162.032" stroke-linecap="round" />
</g>
<g transform="matrix(1 0 0 1 489.48 266.42)"  >
<path style="stroke: rgb(32,129,195); stroke-opacity: 0.6; stroke-width: 32; stroke-dasharray: none; stroke-linecap: round; stroke-dashoffset: 0; stroke-linejoin: round; stroke-miterlimit: 10; fill: none; fill-rule: nonzero; opacity: 0.6;"  transform=" translate(-489.48, -266.42)" d="M 784 176.968 Q 784 177 784 178 Q 784 179 784 180.5 Q 784 182 784 185 Q 784 188 783.5 192 Q 783 196 782.5 200.5 Q 782 205 780.5 211 Q 779 217 778.5 220 Q 778 223 777 225 Q 776 227 776 228.5 Q 776 230 776 228.5 Q 776 227 776.5 224.5 Q 777 222 778 218 Q 779 214 779.5 212 Q 780 210 781 208.5 Q 782 207 782.5 206 Q 783 205 782 208.5 Q 781 212 779 216.5 Q 777 221 775 225.5 Q 773 230 770.5 236 Q 768 242 766.5 244.5 Q 765 247 764.5 248.5 Q 764 250 763.5 251 Q 763 252 765.5 248 Q 768 244 769.5 241.5 Q 771 239 772 237.5 Q 773 236 771.5 239 Q 770 242 767.5 246.5 Q 765 251 762 256.5 Q 759 262 756.5 267 Q 754 272 751.5 276 Q 749 280 748.5 281 Q 748 282 748.5 281 Q 749 280 752 275 Q 755 270 757 267.5 Q 759 265 759.5 264 Q 760 263 756.5 267.5 Q 753 272 750 276 Q 747 280 745 283.5 Q 743 287 741.5 289.5 Q 740 292 739.5 293 Q 739 294 739 292.5 Q 739 291 740 289.5 Q 741 288 742 286.5 Q 743 285 741 286.5 Q 739 288 736 291.5 Q 733 295 730.5 298 Q 728 301 726 303.5 Q 724 306 722.5 307.5 Q 721 309 723.5 306 Q 726 303 727.5 301 Q 729 299 727.5 301 Q 726 303 723 305.5 Q 720 308 717 311 Q 714 314 711.5 316.5 Q 709 319 707.5 320 Q 706 321 708 319 Q 710 317 710.5 316 Q 711 315 709 315.5 Q 707 316 703 318 Q 699 320 694.5 322 Q 690 324 682 326 Q 674 328 668.5 329 Q 663 330 659 330.5 Q 655 331 653 331 Q 651 331 652 331 Q 653 331 657.5 331 Q 662 331 666.5 330.5 Q 671 330 676.5 329 Q 682 328 686.5 327 Q 691 326 695 325 Q 699 324 697.5 324 Q 696 324 690 325.5 Q 684 327 665.5 330.5 Q 647 334 634 336 Q 621 338 608 340 Q 595 342 583.5 344 Q 572 346 565.5 347 Q 559 348 556.5 348 Q 554 348 560 347 Q 566 346 575 344.5 Q 584 343 596 341 Q 608 339 614.5 338.5 Q 621 338 627.5 337.5 Q 634 337 638 336.5 Q 642 336 644.5 335.5 Q 647 335 650 334.5 Q 653 334 649.5 334 Q 646 334 637.5 334 Q 629 334 616.5 334.5 Q 604 335 586.5 335 Q 569 335 559 335 Q 549 335 542 335 Q 535 335 532.5 335.5 Q 530 336 538.5 335 Q 547 334 560 332.5 Q 573 331 583 330 Q 593 329 599 329 Q 605 329 606 329 Q 607 329 606 329 Q 605 329 596.5 329 Q 588 329 574.5 329.5 Q 561 330 538.5 331 Q 516 332 494.5 334.5 Q 473 337 462.5 339 Q 452 341 447 342.5 Q 442 344 440.5 345 Q 439 346 441 347 Q 443 348 454 348 Q 465 348 479.5 345.5 Q 494 343 506 340.5 Q 518 338 524 336.5 Q 530 335 532 334 Q 534 333 532 333 Q 530 333 522 333 Q 514 333 502.5 334 Q 491 335 478.5 337 Q 466 339 447.5 341.5 Q 429 344 418 346 Q 407 348 398.5 349 Q 390 350 386 350 Q 382 350 381 350 Q 380 350 381.5 349 Q 383 348 391.5 344 Q 400 340 411 335.5 Q 422 331 427 329 Q 432 327 432 326 Q 432 325 424 324.5 Q 416 324 402.5 324.5 Q 389 325 376 327.5 Q 363 330 348.5 333.5 Q 334 337 329 338.5 Q 324 340 321.5 341 Q 319 342 317.5 343 Q 316 344 320.5 344 Q 325 344 332 341.5 Q 339 339 344.5 337 Q 350 335 352 333.5 Q 354 332 353 331.5 Q 352 331 343.5 332 Q 335 333 324.5 335 Q 314 337 305 339 Q 296 341 288 342.5 Q 280 344 271 346.5 Q 262 349 258.5 350 Q 255 351 252 352 Q 249 353 246 354 Q 243 355 242 355.5 Q 241 356 243.5 355.5 Q 246 355 254 351.5 Q 262 348 270 343.5 Q 278 339 281 337 Q 284 335 285 332.5 Q 286 330 280 329.5 Q 274 329 262 330 Q 250 331 237.5 334.5 Q 225 338 213.5 341.5 Q 202 345 199.5 346.5 Q 197 348 196 349 L 194.968 350.032" stroke-linecap="round" />
</g>
<g transform="matrix(1 0 0 1 511.5 325)"  >
<path style="stroke: rgb(32,129,195); stroke-opacity: 0.6; stroke-width: 32; stroke-dasharray: none; stroke-linecap: round; stroke-dashoffset: 0; stroke-linejoin: round; stroke-miterlimit: 10; fill: none; fill-rule: nonzero; opacity: 0.6;"  transform=" translate(-511.5, -325)" d="M 288.968 351.032 Q 289 351 293.5 351 Q 298 351 302 350 Q 306 349 318.5 347.5 Q 331 346 352 343 Q 373 340 385 339 Q 397 338 405 337.5 Q 413 337 416.5 337 Q 420 337 422 337 Q 424 337 425 337 Q 426 337 423 337 Q 420 337 410 337 Q 400 337 386.5 337.5 Q 373 338 354 339 Q 335 340 327.5 341 Q 320 342 317 342.5 Q 314 343 323.5 342 Q 333 341 349.5 338.5 Q 366 336 382 334.5 Q 398 333 412 332 Q 426 331 436 330.5 Q 446 330 452 330 Q 458 330 452 331 Q 446 332 431.5 334 Q 417 336 403 337 Q 389 338 381.5 338.5 Q 374 339 375.5 339 Q 377 339 400 335 Q 423 331 435 329.5 Q 447 328 482.5 324.5 Q 518 321 537.5 319.5 Q 557 318 568.5 317.5 Q 580 317 583.5 317 Q 587 317 582 317 Q 577 317 565.5 317.5 Q 554 318 544.5 318.5 Q 535 319 532.5 319 Q 530 319 534.5 319 Q 539 319 553 319 Q 567 319 584 317.5 Q 601 316 614.5 315 Q 628 314 637.5 313 Q 647 312 651 311.5 Q 655 311 650.5 310 Q 646 309 638.5 308.5 Q 631 308 629.5 308 Q 628 308 633 307.5 Q 638 307 652.5 307 Q 667 307 682.5 307 Q 698 307 709.5 306.5 Q 721 306 722 306 Q 723 306 720.5 305.5 Q 718 305 710.5 304.5 Q 703 304 697 303.5 Q 691 303 696.5 302.5 Q 702 302 711.5 301 Q 721 300 727.5 299.5 L 734.032 298.968" stroke-linecap="round" />
</g>
<g transform="matrix(1 0 0 1 770.09 312)"  >
<path style="stroke: rgb(255,255,255); stroke-width: 16; stroke-dasharray: none; stroke-linecap: round; stroke-dashoffset: 0; stroke-linejoin: round; stroke-miterlimit: 10; fill: none; fill-rule: nonzero; opacity: 1;"  transform=" translate(-770.09, -312)" d="M 801.016 272.984 Q 801 273 801 274.5 Q 801 276 799.5 278.5 Q 798 281 795 287.5 Q 792 294 790 298 Q 788 302 786 304.5 Q 784 307 783.5 308.5 Q 783 310 783.5 309 Q 784 308 785 305 Q 786 302 788 298 Q 790 294 791.5 291 Q 793 288 793.5 286 Q 794 284 793.5 285 Q 793 286 791 289 Q 789 292 786.5 297 Q 784 302 782.5 304.5 Q 781 307 780.5 308.5 Q 780 310 780.5 308.5 Q 781 307 782.5 303.5 Q 784 300 785.5 296.5 Q 787 293 788 290.5 Q 789 288 789 287 Q 789 286 788 288 Q 787 290 786 292.5 Q 785 295 784 297.5 Q 783 300 782.5 301 Q 782 302 782.5 300 Q 783 298 783.5 296 Q 784 294 783 296 Q 782 298 782 297 Q 782 296 783 294.5 Q 784 293 784.5 291 Q 785 289 783.5 291.5 Q 782 294 781.5 295.5 Q 781 297 781.5 295 Q 782 293 782.5 291.5 Q 783 290 781.5 291.5 Q 780 293 779.5 294 Q 779 295 779.5 293.5 Q 780 292 780.5 290.5 Q 781 289 781.5 288 Q 782 287 782.5 286 Q 783 285 783 286 Q 783 287 782 289 Q 781 291 780 292.5 Q 779 294 777.5 296.5 Q 776 299 775.5 301 Q 775 303 774 305 Q 773 307 773 308.5 Q 773 310 774.5 307.5 Q 776 305 776.5 304 Q 777 303 776 304.5 Q 775 306 774 308 Q 773 310 771.5 311.5 Q 770 313 769.5 314 Q 769 315 769 313.5 Q 769 312 769.5 310.5 Q 770 309 769 310 Q 768 311 767 312.5 Q 766 314 765.5 315.5 Q 765 317 765.5 315 Q 766 313 767.5 310 Q 769 307 769 306 Q 769 305 767.5 307 Q 766 309 764 312 Q 762 315 761.5 316 Q 761 317 761.5 316 Q 762 315 761.5 316.5 Q 761 318 760 319 Q 759 320 759 321 Q 759 322 759 323 Q 759 324 758.5 325.5 Q 758 327 757 328 Q 756 329 755.5 330.5 Q 755 332 754 333 Q 753 334 752.5 335.5 Q 752 337 751.5 338 Q 751 339 749.5 340 Q 748 341 747 341.5 Q 746 342 745 343 Q 744 344 743 344.5 Q 742 345 741.5 346 Q 741 347 740 348 Q 739 349 739.5 348 Q 740 347 742 346 Q 744 345 747.5 342 Q 751 339 753.5 337.5 Q 756 336 758 334 Q 760 332 761.5 331 Q 763 330 761 331 Q 759 332 757 334 Q 755 336 751.5 339 Q 748 342 747 343.5 Q 746 345 745 346 Q 744 347 742 349 L 739.984 351.016" stroke-linecap="round" />
</g>
<g transform="matrix(1 0 0 1 386 202.5)"  >
<line style="stroke: rgb(233,223,0); stroke-width: 2; stroke-dasharray: none; stroke-linecap: butt; stroke-dashoffset: 0; stroke-linejoin: miter; stroke-miterlimit: 4; fill: rgb(233,223,0); fill-rule: nonzero; opacity: 1;"  x1="0" y1="-11.5" x2="0" y2="11.5" />
</g>
<g transform="matrix(1 0 0 1 386 200.5)"  >
<line style="stroke: rgb(233,223,0); stroke-width: 2; stroke-dasharray: none; stroke-linecap: butt; stroke-dashoffset: 0; stroke-linejoin: miter; stroke-miterlimit: 4; fill: rgb(233,223,0); fill-rule: nonzero; opacity: 1;"  x1="-12" y1="6.5" x2="12" y2="-6.5" />
</g>
<g transform="matrix(1 0 0 1 386.5 202)"  >
<line style="stroke: rgb(233,223,0); stroke-width: 2; stroke-dasharray: none; stroke-linecap: butt; stroke-dashoffset: 0; stroke-linejoin: miter; stroke-miterlimit: 4; fill: rgb(233,223,0); fill-rule: nonzero; opacity: 1;"  x1="-11.5" y1="-9" x2="11.5" y2="9" />
</g>
<g transform="matrix(1 0 0 1 388 201.5)"  >
<line style="stroke: rgb(233,223,0); stroke-width: 2; stroke-dasharray: none; stroke-linecap: butt; stroke-dashoffset: 0; stroke-linejoin: miter; stroke-miterlimit: 4; fill: rgb(233,223,0); fill-rule: nonzero; opacity: 1;"  x1="-9" y1="14.5" x2="9" y2="-14.5" />
</g>
<g transform="matrix(1 0 0 1 383.5 202)"  >
<line style="stroke: rgb(233,223,0); stroke-width: 2; stroke-dasharray: none; stroke-linecap: butt; stroke-dashoffset: 0; stroke-linejoin: miter; stroke-miterlimit: 4; fill: rgb(233,223,0); fill-rule: nonzero; opacity: 1;"  x1="-10.5" y1="0" x2="10.5" y2="0" />
</g>
</svg>